<svg xmlns="http://www.w3.org/2000/svg" xmlns:xlink="http://www.w3.org/1999/xlink" width="1548" zoomAndPan="magnify" viewBox="0 0 1161 296.999993" height="396" preserveAspectRatio="xMidYMid meet" version="1.0"><defs><g/></defs><g fill="#efe1ff" fill-opacity="1"><g transform="translate(200.033432, 162.749989)"><g><path d="M 20.5 31.390625 C 20.5 30.960938 20.515625 30.285156 20.546875 29.359375 C 20.585938 28.429688 20.660156 27.503906 20.765625 26.578125 C 20.867188 25.660156 20.957031 25.09375 21.03125 24.875 C 20.53125 24.945312 20.242188 25.070312 20.171875 25.25 C 20.109375 25.425781 19.929688 25.765625 19.640625 26.265625 C 19.210938 27.191406 19.050781 28.132812 19.15625 29.09375 C 19.269531 30.050781 19.71875 30.816406 20.5 31.390625 Z M 29.046875 -67.796875 C 29.046875 -69.859375 29.203125 -71.832031 29.515625 -73.71875 C 29.835938 -75.601562 30 -77.546875 30 -79.546875 C 30 -80.328125 30.066406 -81.285156 30.203125 -82.421875 C 30.347656 -83.554688 30.457031 -84.585938 30.53125 -85.515625 C 30.675781 -86.515625 30.726562 -87.242188 30.6875 -87.703125 C 30.65625 -88.171875 30.742188 -88.53125 30.953125 -88.78125 C 31.171875 -89.03125 31.632812 -89.367188 32.34375 -89.796875 C 32.914062 -89.503906 33.394531 -89.179688 33.78125 -88.828125 C 34.175781 -88.472656 34.375 -87.832031 34.375 -86.90625 C 34.375 -83.488281 34.285156 -80.566406 34.109375 -78.140625 C 33.929688 -75.722656 33.703125 -72.953125 33.421875 -69.828125 C 33.984375 -69.960938 34.707031 -70.226562 35.59375 -70.625 C 36.488281 -71.019531 37.257812 -71.320312 37.90625 -71.53125 C 42.675781 -73.457031 47.816406 -75.34375 53.328125 -77.1875 C 58.847656 -79.039062 64.171875 -80.429688 69.296875 -81.359375 C 70.429688 -81.640625 72.472656 -82.03125 75.421875 -82.53125 C 78.378906 -83.03125 81.691406 -83.472656 85.359375 -83.859375 C 89.023438 -84.253906 92.53125 -84.453125 95.875 -84.453125 C 99.4375 -84.453125 102.441406 -84.128906 104.890625 -83.484375 C 107.347656 -82.847656 108.578125 -81.640625 108.578125 -79.859375 C 108.578125 -77.867188 107.847656 -76.359375 106.390625 -75.328125 C 104.929688 -74.296875 103.488281 -73.707031 102.0625 -73.5625 C 102.425781 -74.5625 103 -75.578125 103.78125 -76.609375 C 104.5625 -77.640625 105.019531 -78.617188 105.15625 -79.546875 C 104.238281 -79.679688 103.40625 -79.851562 102.65625 -80.0625 C 101.90625 -80.28125 100.925781 -80.390625 99.71875 -80.390625 C 96.09375 -80.390625 92.941406 -80.351562 90.265625 -80.28125 C 87.597656 -80.21875 85.070312 -80.039062 82.6875 -79.75 C 80.300781 -79.46875 77.789062 -79.078125 75.15625 -78.578125 C 72.53125 -78.078125 69.4375 -77.398438 65.875 -76.546875 C 65.375 -76.410156 64.269531 -76.070312 62.5625 -75.53125 C 60.851562 -75 58.785156 -74.359375 56.359375 -73.609375 C 53.941406 -72.867188 51.4375 -72.050781 48.84375 -71.15625 C 46.25 -70.269531 43.796875 -69.398438 41.484375 -68.546875 C 39.171875 -67.691406 37.25 -66.925781 35.71875 -66.25 C 34.1875 -65.570312 33.3125 -65.019531 33.09375 -64.59375 L 29.6875 -31.0625 C 29.613281 -30.144531 29.488281 -29.078125 29.3125 -27.859375 C 29.132812 -26.648438 29.046875 -25.515625 29.046875 -24.453125 C 29.828125 -24.585938 31.050781 -24.992188 32.71875 -25.671875 C 34.394531 -26.347656 35.765625 -26.832031 36.828125 -27.125 C 38.109375 -27.550781 39.78125 -28.046875 41.84375 -28.609375 C 43.914062 -29.179688 46 -29.71875 48.09375 -30.21875 C 50.195312 -30.71875 51.890625 -31.035156 53.171875 -31.171875 C 54.660156 -31.390625 55.90625 -31.5 56.90625 -31.5 C 58.757812 -31.5 59.863281 -31.140625 60.21875 -30.421875 C 60.570312 -29.710938 60.570312 -28.644531 60.21875 -27.21875 C 59.863281 -27.15625 59.613281 -27.101562 59.46875 -27.0625 C 59.320312 -27.03125 59 -26.976562 58.5 -26.90625 C 58.363281 -27.832031 57.9375 -28.296875 57.21875 -28.296875 C 55.875 -28.296875 54.097656 -28.0625 51.890625 -27.59375 C 49.679688 -27.132812 47.332031 -26.566406 44.84375 -25.890625 C 42.351562 -25.210938 39.96875 -24.5 37.6875 -23.75 C 35.40625 -23.007812 33.554688 -22.351562 32.140625 -21.78125 C 31.640625 -21.5625 31.101562 -21.34375 30.53125 -21.125 C 29.96875 -20.914062 29.363281 -20.78125 28.71875 -20.71875 L 25.296875 16.65625 C 26.148438 16.582031 27.109375 16.222656 28.171875 15.578125 C 29.242188 14.941406 30.175781 14.484375 30.96875 14.203125 C 33.882812 12.921875 36.925781 11.832031 40.09375 10.9375 C 43.257812 10.050781 46.441406 9.359375 49.640625 8.859375 C 50.285156 8.710938 51.566406 8.515625 53.484375 8.265625 C 55.410156 8.023438 57.742188 7.757812 60.484375 7.46875 C 63.222656 7.1875 66.125 6.957031 69.1875 6.78125 C 72.25 6.601562 75.238281 6.515625 78.15625 6.515625 C 82.28125 6.515625 85.816406 6.796875 88.765625 7.359375 C 91.722656 7.929688 93.203125 9 93.203125 10.5625 C 93.203125 11.28125 93.179688 11.726562 93.140625 11.90625 C 93.109375 12.082031 93.003906 12.207031 92.828125 12.28125 C 92.648438 12.351562 92.382812 12.632812 92.03125 13.125 C 91.675781 12.84375 91.410156 12.539062 91.234375 12.21875 C 91.054688 11.90625 90.695312 11.585938 90.15625 11.265625 C 89.625 10.941406 88.578125 10.675781 87.015625 10.46875 C 84.660156 10.039062 81.457031 9.828125 77.40625 9.828125 C 72.632812 9.828125 67.597656 10.039062 62.296875 10.46875 C 56.992188 10.894531 51.796875 11.640625 46.703125 12.703125 C 41.617188 13.773438 36.867188 15.269531 32.453125 17.1875 C 31.742188 17.46875 31.15625 17.710938 30.6875 17.921875 C 30.226562 18.140625 29.679688 18.429688 29.046875 18.796875 C 28.472656 19.078125 27.898438 19.34375 27.328125 19.59375 C 26.765625 19.84375 26.300781 20.070312 25.9375 20.28125 C 25.375 20.632812 24.984375 21.34375 24.765625 22.40625 C 24.554688 23.476562 24.429688 24.617188 24.390625 25.828125 C 24.359375 27.046875 24.304688 28.148438 24.234375 29.140625 C 24.023438 31.566406 23.613281 33.238281 23 34.15625 C 22.394531 35.082031 21.703125 35.546875 20.921875 35.546875 C 20.210938 35.546875 19.46875 35.191406 18.6875 34.484375 C 17.90625 33.773438 17.265625 32.957031 16.765625 32.03125 C 16.265625 31.101562 16.015625 30.320312 16.015625 29.6875 C 16.015625 27.613281 16.242188 26.023438 16.703125 24.921875 C 17.171875 23.828125 17.707031 22.992188 18.3125 22.421875 C 18.914062 21.847656 19.5 21.347656 20.0625 20.921875 C 20.632812 20.492188 21.03125 19.960938 21.25 19.328125 C 21.320312 19.035156 21.410156 18.300781 21.515625 17.125 C 21.617188 15.957031 21.722656 14.644531 21.828125 13.1875 C 21.941406 11.726562 22.03125 10.375 22.09375 9.125 C 22.164062 7.882812 22.203125 7.050781 22.203125 6.625 C 22.203125 5.769531 22.238281 5.234375 22.3125 5.015625 C 22.382812 4.804688 22.457031 4.34375 22.53125 3.625 C 22.53125 3.0625 22.507812 2.507812 22.46875 1.96875 C 22.4375 1.4375 22.457031 0.882812 22.53125 0.3125 L 23.921875 -18.6875 L 14.953125 -14.09375 C 14.878906 -14.09375 14.429688 -13.820312 13.609375 -13.28125 C 12.796875 -12.75 12.03125 -12.484375 11.3125 -12.484375 C 10.601562 -12.484375 10.25 -12.945312 10.25 -13.875 C 10.25 -14.445312 10.691406 -15.085938 11.578125 -15.796875 C 12.472656 -16.515625 13.4375 -17.175781 14.46875 -17.78125 C 15.5 -18.382812 16.226562 -18.789062 16.65625 -19 L 24.5625 -22.734375 C 24.5625 -24.585938 24.628906 -26.332031 24.765625 -27.96875 C 24.910156 -29.601562 25.085938 -31.3125 25.296875 -33.09375 L 28.296875 -62.984375 C 27.578125 -62.628906 26.863281 -62.273438 26.15625 -61.921875 C 25.445312 -61.566406 24.703125 -61.25 23.921875 -60.96875 L 11.203125 -54.34375 C 9.859375 -53.5625 8.507812 -52.757812 7.15625 -51.9375 C 5.800781 -51.125 4.445312 -50.253906 3.09375 -49.328125 C 2.738281 -49.109375 2.398438 -48.890625 2.078125 -48.671875 C 1.753906 -48.460938 1.378906 -48.21875 0.953125 -47.9375 C 0.597656 -47.65625 0.332031 -47.441406 0.15625 -47.296875 C -0.0195312 -47.148438 -0.320312 -46.9375 -0.75 -46.65625 C -1.03125 -46.507812 -1.347656 -46.363281 -1.703125 -46.21875 C -2.054688 -46.082031 -2.414062 -46.015625 -2.78125 -46.015625 C -3.769531 -46.015625 -4.265625 -46.550781 -4.265625 -47.625 C -4.265625 -48.257812 -3.550781 -49.144531 -2.125 -50.28125 C -0.707031 -51.425781 1.082031 -52.671875 3.25 -54.015625 C 5.425781 -55.367188 7.671875 -56.703125 9.984375 -58.015625 C 12.296875 -59.335938 14.34375 -60.492188 16.125 -61.484375 C 17.90625 -62.484375 19.113281 -63.128906 19.75 -63.421875 Z M 29.046875 -67.796875 "/></g></g></g><g fill="#efe1ff" fill-opacity="1"><g transform="translate(296.659772, 162.749989)"><g><path d="M 3.3125 16.65625 C 3.3125 17.4375 3.363281 18.644531 3.46875 20.28125 C 3.570312 21.914062 3.785156 23.640625 4.109375 25.453125 C 4.429688 27.273438 4.894531 28.863281 5.5 30.21875 C 6.101562 31.570312 6.867188 32.351562 7.796875 32.5625 C 8.578125 32.0625 9.335938 31.046875 10.078125 29.515625 C 10.828125 27.984375 11.46875 26.328125 12 24.546875 C 12.539062 22.773438 12.8125 21.25 12.8125 19.96875 L 12.8125 15.90625 C 12.8125 14.269531 12.3125 12.648438 11.3125 11.046875 C 10.320312 9.441406 9.09375 8.070312 7.625 6.9375 C 6.164062 5.800781 4.726562 5.234375 3.3125 5.234375 Z M -13.765625 5.65625 C -13.765625 4.726562 -13.140625 3.960938 -11.890625 3.359375 C -10.648438 2.753906 -9.25 2.273438 -7.6875 1.921875 C -6.125 1.566406 -4.945312 1.351562 -4.15625 1.28125 C -3.019531 1.132812 -2.328125 1.039062 -2.078125 1 C -1.828125 0.96875 -1.664062 0.347656 -1.59375 -0.859375 C -1.53125 -2.566406 -1.265625 -4.71875 -0.796875 -7.3125 C -0.335938 -9.90625 0.242188 -12.679688 0.953125 -15.640625 C 1.671875 -18.597656 2.4375 -21.515625 3.25 -24.390625 C 4.070312 -27.273438 4.925781 -29.875 5.8125 -32.1875 C 6.707031 -34.5 7.582031 -36.226562 8.4375 -37.375 C 9.363281 -38.507812 10.320312 -39.078125 11.3125 -39.078125 C 11.8125 -39.078125 12.238281 -38.878906 12.59375 -38.484375 C 12.945312 -38.097656 13.125 -37.441406 13.125 -36.515625 C 13.125 -35.234375 13.050781 -34.46875 12.90625 -34.21875 C 12.769531 -33.96875 12.554688 -33.804688 12.265625 -33.734375 C 11.984375 -33.660156 11.628906 -33.320312 11.203125 -32.71875 C 10.773438 -32.113281 10.28125 -30.78125 9.71875 -28.71875 C 9 -26.226562 8.425781 -24.21875 8 -22.6875 C 7.570312 -21.15625 7.160156 -19.601562 6.765625 -18.03125 C 6.378906 -16.46875 5.90625 -14.300781 5.34375 -11.53125 C 5.125 -10.394531 4.890625 -8.898438 4.640625 -7.046875 C 4.390625 -5.191406 4.195312 -3.625 4.0625 -2.34375 C 4.488281 -2.488281 5.234375 -2.914062 6.296875 -3.625 C 7.367188 -4.34375 8.523438 -5.179688 9.765625 -6.140625 C 11.015625 -7.097656 12.207031 -8.019531 13.34375 -8.90625 C 14.476562 -9.800781 15.332031 -10.5 15.90625 -11 L 23.703125 -18.359375 C 24.203125 -18.710938 24.703125 -18.890625 25.203125 -18.890625 C 25.984375 -18.890625 26.375 -18.460938 26.375 -17.609375 C 26.375 -16.898438 25.859375 -15.992188 24.828125 -14.890625 C 23.796875 -13.785156 22.671875 -12.695312 21.453125 -11.625 C 20.242188 -10.5625 19.359375 -9.78125 18.796875 -9.28125 L 4.375 1.921875 C 8.5 2.847656 11.503906 4.785156 13.390625 7.734375 C 15.285156 10.691406 16.234375 14.109375 16.234375 17.984375 C 16.234375 21.867188 15.484375 25.769531 13.984375 29.6875 C 13.484375 31.175781 12.679688 32.722656 11.578125 34.328125 C 10.472656 35.929688 8.960938 36.734375 7.046875 36.734375 C 5.410156 36.734375 4.054688 35.945312 2.984375 34.375 C 1.921875 32.8125 1.050781 30.835938 0.375 28.453125 C -0.300781 26.066406 -0.816406 23.609375 -1.171875 21.078125 C -1.523438 18.554688 -1.789062 16.242188 -1.96875 14.140625 C -2.144531 12.046875 -2.269531 10.570312 -2.34375 9.71875 C -2.414062 9.070312 -2.378906 8.394531 -2.234375 7.6875 C -2.097656 6.976562 -2.03125 6.160156 -2.03125 5.234375 C -3.238281 5.515625 -4.609375 6.082031 -6.140625 6.9375 C -7.671875 7.789062 -9.46875 8.21875 -11.53125 8.21875 C -12.8125 8.21875 -13.503906 7.96875 -13.609375 7.46875 C -13.710938 6.96875 -13.765625 6.363281 -13.765625 5.65625 Z M -13.765625 5.65625 "/></g></g></g><g fill="#efe1ff" fill-opacity="1"><g transform="translate(317.800121, 162.749989)"><g><path d="M 3.3125 16.65625 C 3.3125 17.4375 3.363281 18.644531 3.46875 20.28125 C 3.570312 21.914062 3.785156 23.640625 4.109375 25.453125 C 4.429688 27.273438 4.894531 28.863281 5.5 30.21875 C 6.101562 31.570312 6.867188 32.351562 7.796875 32.5625 C 8.578125 32.0625 9.335938 31.046875 10.078125 29.515625 C 10.828125 27.984375 11.46875 26.328125 12 24.546875 C 12.539062 22.773438 12.8125 21.25 12.8125 19.96875 L 12.8125 15.90625 C 12.8125 14.269531 12.3125 12.648438 11.3125 11.046875 C 10.320312 9.441406 9.09375 8.070312 7.625 6.9375 C 6.164062 5.800781 4.726562 5.234375 3.3125 5.234375 Z M -13.765625 5.65625 C -13.765625 4.726562 -13.140625 3.960938 -11.890625 3.359375 C -10.648438 2.753906 -9.25 2.273438 -7.6875 1.921875 C -6.125 1.566406 -4.945312 1.351562 -4.15625 1.28125 C -3.019531 1.132812 -2.328125 1.039062 -2.078125 1 C -1.828125 0.96875 -1.664062 0.347656 -1.59375 -0.859375 C -1.53125 -2.566406 -1.265625 -4.71875 -0.796875 -7.3125 C -0.335938 -9.90625 0.242188 -12.679688 0.953125 -15.640625 C 1.671875 -18.597656 2.4375 -21.515625 3.25 -24.390625 C 4.070312 -27.273438 4.925781 -29.875 5.8125 -32.1875 C 6.707031 -34.5 7.582031 -36.226562 8.4375 -37.375 C 9.363281 -38.507812 10.320312 -39.078125 11.3125 -39.078125 C 11.8125 -39.078125 12.238281 -38.878906 12.59375 -38.484375 C 12.945312 -38.097656 13.125 -37.441406 13.125 -36.515625 C 13.125 -35.234375 13.050781 -34.46875 12.90625 -34.21875 C 12.769531 -33.96875 12.554688 -33.804688 12.265625 -33.734375 C 11.984375 -33.660156 11.628906 -33.320312 11.203125 -32.71875 C 10.773438 -32.113281 10.28125 -30.78125 9.71875 -28.71875 C 9 -26.226562 8.425781 -24.21875 8 -22.6875 C 7.570312 -21.15625 7.160156 -19.601562 6.765625 -18.03125 C 6.378906 -16.46875 5.90625 -14.300781 5.34375 -11.53125 C 5.125 -10.394531 4.890625 -8.898438 4.640625 -7.046875 C 4.390625 -5.191406 4.195312 -3.625 4.0625 -2.34375 C 4.488281 -2.488281 5.234375 -2.914062 6.296875 -3.625 C 7.367188 -4.34375 8.523438 -5.179688 9.765625 -6.140625 C 11.015625 -7.097656 12.207031 -8.019531 13.34375 -8.90625 C 14.476562 -9.800781 15.332031 -10.5 15.90625 -11 L 23.703125 -18.359375 C 24.203125 -18.710938 24.703125 -18.890625 25.203125 -18.890625 C 25.984375 -18.890625 26.375 -18.460938 26.375 -17.609375 C 26.375 -16.898438 25.859375 -15.992188 24.828125 -14.890625 C 23.796875 -13.785156 22.671875 -12.695312 21.453125 -11.625 C 20.242188 -10.5625 19.359375 -9.78125 18.796875 -9.28125 L 4.375 1.921875 C 8.5 2.847656 11.503906 4.785156 13.390625 7.734375 C 15.285156 10.691406 16.234375 14.109375 16.234375 17.984375 C 16.234375 21.867188 15.484375 25.769531 13.984375 29.6875 C 13.484375 31.175781 12.679688 32.722656 11.578125 34.328125 C 10.472656 35.929688 8.960938 36.734375 7.046875 36.734375 C 5.410156 36.734375 4.054688 35.945312 2.984375 34.375 C 1.921875 32.8125 1.050781 30.835938 0.375 28.453125 C -0.300781 26.066406 -0.816406 23.609375 -1.171875 21.078125 C -1.523438 18.554688 -1.789062 16.242188 -1.96875 14.140625 C -2.144531 12.046875 -2.269531 10.570312 -2.34375 9.71875 C -2.414062 9.070312 -2.378906 8.394531 -2.234375 7.6875 C -2.097656 6.976562 -2.03125 6.160156 -2.03125 5.234375 C -3.238281 5.515625 -4.609375 6.082031 -6.140625 6.9375 C -7.671875 7.789062 -9.46875 8.21875 -11.53125 8.21875 C -12.8125 8.21875 -13.503906 7.96875 -13.609375 7.46875 C -13.710938 6.96875 -13.765625 6.363281 -13.765625 5.65625 Z M -13.765625 5.65625 "/></g></g></g><g fill="#efe1ff" fill-opacity="1"><g transform="translate(338.940471, 162.749989)"><g><path d="M 5.34375 -2.453125 C 6.40625 -2.734375 7.363281 -3.675781 8.21875 -5.28125 C 9.070312 -6.882812 9.675781 -8.71875 10.03125 -10.78125 C 10.382812 -12.84375 10.472656 -14.742188 10.296875 -16.484375 C 10.117188 -18.234375 9.566406 -19.429688 8.640625 -20.078125 C 8.429688 -19.285156 8.039062 -18.160156 7.46875 -16.703125 C 6.90625 -15.242188 6.351562 -13.640625 5.8125 -11.890625 C 5.28125 -10.148438 4.925781 -8.441406 4.75 -6.765625 C 4.570312 -5.097656 4.769531 -3.660156 5.34375 -2.453125 Z M 0 -6.078125 C 0 -7.003906 0.191406 -8.375 0.578125 -10.1875 C 0.972656 -12.007812 1.523438 -13.96875 2.234375 -16.0625 C 2.953125 -18.164062 3.753906 -20.160156 4.640625 -22.046875 C 5.535156 -23.929688 6.5 -25.476562 7.53125 -26.6875 C 8.5625 -27.894531 9.609375 -28.5 10.671875 -28.5 C 11.390625 -28.5 11.890625 -28.175781 12.171875 -27.53125 C 12.453125 -26.894531 12.523438 -26.363281 12.390625 -25.9375 C 12.242188 -25.582031 11.972656 -25.226562 11.578125 -24.875 C 11.191406 -24.519531 10.851562 -24.128906 10.5625 -23.703125 C 10.707031 -23.203125 11.0625 -22.648438 11.625 -22.046875 C 12.195312 -21.441406 12.769531 -20.640625 13.34375 -19.640625 C 13.914062 -18.648438 14.289062 -17.300781 14.46875 -15.59375 C 14.644531 -13.882812 14.445312 -11.640625 13.875 -8.859375 C 13.09375 -5.160156 11.847656 -2.382812 10.140625 -0.53125 C 8.429688 1.3125 6.757812 2.234375 5.125 2.234375 C 3.769531 2.234375 2.578125 1.539062 1.546875 0.15625 C 0.515625 -1.226562 0 -3.304688 0 -6.078125 Z M 0 -6.078125 "/></g></g></g><g fill="#efe1ff" fill-opacity="1"><g transform="translate(357.731897, 162.749989)"><g><path d="M 1.5 -0.421875 C 0.78125 -0.421875 0.347656 -0.863281 0.203125 -1.75 C 0.0664062 -2.644531 0.0351562 -3.585938 0.109375 -4.578125 C 0.179688 -5.578125 0.21875 -6.1875 0.21875 -6.40625 C 0.144531 -7.6875 0.125 -8.984375 0.15625 -10.296875 C 0.195312 -11.617188 0.179688 -12.957031 0.109375 -14.3125 C 0.109375 -14.800781 0.125 -15.738281 0.15625 -17.125 C 0.195312 -18.519531 0.304688 -20 0.484375 -21.5625 C 0.660156 -23.132812 0.925781 -24.488281 1.28125 -25.625 C 1.632812 -26.757812 2.097656 -27.328125 2.671875 -27.328125 C 4.085938 -27.328125 4.8125 -26.863281 4.84375 -25.9375 C 4.882812 -25.019531 4.835938 -23.8125 4.703125 -22.3125 C 4.628906 -21.8125 4.59375 -21.257812 4.59375 -20.65625 C 4.59375 -20.050781 4.59375 -19.460938 4.59375 -18.890625 C 4.59375 -18.179688 4.554688 -17.71875 4.484375 -17.5 C 4.410156 -17.289062 4.375 -16.832031 4.375 -16.125 C 5.15625 -16.6875 5.863281 -17.34375 6.5 -18.09375 C 7.144531 -18.84375 8.285156 -19.21875 9.921875 -19.21875 C 10.421875 -19.21875 11.078125 -19.234375 11.890625 -19.265625 C 12.710938 -19.304688 13.585938 -19.328125 14.515625 -19.328125 C 16.085938 -19.328125 17.546875 -19.238281 18.890625 -19.0625 C 20.242188 -18.882812 20.921875 -18.4375 20.921875 -17.71875 C 20.921875 -17.007812 20.546875 -16.546875 19.796875 -16.328125 C 19.054688 -16.117188 18.148438 -16.015625 17.078125 -16.015625 C 16.367188 -16.015625 15.640625 -16.03125 14.890625 -16.0625 C 14.140625 -16.101562 13.484375 -16.125 12.921875 -16.125 C 10.921875 -16.125 9.582031 -16.015625 8.90625 -15.796875 C 8.238281 -15.585938 7.476562 -14.769531 6.625 -13.34375 C 6.125 -12.414062 5.640625 -11.414062 5.171875 -10.34375 C 4.710938 -9.28125 4.375 -8.109375 4.15625 -6.828125 C 3.945312 -5.898438 3.859375 -4.9375 3.890625 -3.9375 C 3.929688 -2.945312 3.828125 -2.113281 3.578125 -1.4375 C 3.328125 -0.757812 2.632812 -0.421875 1.5 -0.421875 Z M 1.5 -0.421875 "/></g></g></g><g fill="#efe1ff" fill-opacity="1"><g transform="translate(375.135315, 162.749989)"><g><path d="M -30 -47.625 C -30 -48.539062 -29.144531 -49.515625 -27.4375 -50.546875 C -25.726562 -51.585938 -23.570312 -52.601562 -20.96875 -53.59375 C -18.375 -54.59375 -15.632812 -55.535156 -12.75 -56.421875 C -9.875 -57.316406 -7.222656 -58.082031 -4.796875 -58.71875 C -2.378906 -59.363281 -0.566406 -59.863281 0.640625 -60.21875 C 2.128906 -60.644531 3.175781 -60.890625 3.78125 -60.953125 C 4.394531 -61.023438 4.789062 -61.257812 4.96875 -61.65625 C 5.144531 -62.050781 5.335938 -62.851562 5.546875 -64.0625 C 6.117188 -66.976562 6.773438 -68.988281 7.515625 -70.09375 C 8.265625 -71.195312 9 -71.75 9.71875 -71.75 C 10.28125 -71.75 10.757812 -71.445312 11.15625 -70.84375 C 11.550781 -70.238281 11.75 -69.507812 11.75 -68.65625 C 11.75 -68.007812 11.710938 -67.738281 11.640625 -67.84375 C 11.566406 -67.957031 11.566406 -67.726562 11.640625 -67.15625 C 11.640625 -67.007812 11.65625 -66.828125 11.6875 -66.609375 C 11.726562 -66.398438 11.75 -66.117188 11.75 -65.765625 C 11.75 -64.835938 11.566406 -64.375 11.203125 -64.375 C 10.847656 -64.375 10.492188 -64.320312 10.140625 -64.21875 C 9.785156 -64.113281 9.609375 -63.488281 9.609375 -62.34375 C 10.460938 -62.34375 11.40625 -62.46875 12.4375 -62.71875 C 13.46875 -62.96875 14.375 -63.128906 15.15625 -63.203125 C 18.289062 -63.773438 21.421875 -64.289062 24.546875 -64.75 C 27.679688 -65.21875 30.890625 -65.453125 34.171875 -65.453125 C 35.878906 -65.453125 37.125 -65.09375 37.90625 -64.375 C 38.6875 -63.664062 38.96875 -62.953125 38.75 -62.234375 C 38.539062 -61.523438 37.757812 -61.171875 36.40625 -61.171875 C 36.257812 -61.742188 36.171875 -62.007812 36.140625 -61.96875 C 36.109375 -61.9375 35.769531 -61.992188 35.125 -62.140625 C 34.84375 -62.210938 34.273438 -62.25 33.421875 -62.25 C 31.921875 -62.25 29.941406 -62.085938 27.484375 -61.765625 C 25.035156 -61.441406 22.492188 -61.066406 19.859375 -60.640625 C 17.222656 -60.210938 14.875 -59.800781 12.8125 -59.40625 C 10.75 -59.019531 9.394531 -58.753906 8.75 -58.609375 L 6.625 -36.734375 C 6.550781 -36.234375 6.53125 -35.695312 6.5625 -35.125 C 6.601562 -34.550781 6.625 -33.984375 6.625 -33.421875 C 6.625 -32.703125 6.566406 -32.234375 6.453125 -32.015625 C 6.347656 -31.804688 6.296875 -31.3125 6.296875 -30.53125 C 6.296875 -28.96875 6.332031 -27.171875 6.40625 -25.140625 C 6.476562 -23.109375 6.441406 -21.523438 6.296875 -20.390625 C 6.222656 -19.753906 6.164062 -18.488281 6.125 -16.59375 C 6.09375 -14.707031 6.0625 -12.519531 6.03125 -10.03125 C 6 -7.539062 5.984375 -5.03125 5.984375 -2.5 C 5.984375 0.0195312 5.984375 2.3125 5.984375 4.375 C 5.984375 6.4375 6.015625 7.929688 6.078125 8.859375 C 6.078125 9.640625 6.164062 10.832031 6.34375 12.4375 C 6.53125 14.039062 6.566406 15.484375 6.453125 16.765625 C 6.347656 18.046875 5.832031 18.6875 4.90625 18.6875 C 3.550781 18.6875 2.734375 17.9375 2.453125 16.4375 C 2.171875 14.945312 2.03125 13.5625 2.03125 12.28125 C 1.8125 9.71875 1.679688 6.726562 1.640625 3.3125 C 1.609375 -0.101562 1.609375 -3.519531 1.640625 -6.9375 C 1.679688 -10.351562 1.703125 -13.34375 1.703125 -15.90625 L 2.03125 -20.921875 C 2.03125 -21.921875 2.03125 -23.453125 2.03125 -25.515625 C 2.03125 -27.578125 2.0625 -29.765625 2.125 -32.078125 C 2.195312 -34.390625 2.269531 -36.503906 2.34375 -38.421875 C 2.414062 -40.347656 2.523438 -41.707031 2.671875 -42.5 C 2.804688 -43.207031 2.890625 -44.054688 2.921875 -45.046875 C 2.960938 -46.046875 3.019531 -46.90625 3.09375 -47.625 L 4.0625 -57.546875 C 3.769531 -57.472656 3.144531 -57.328125 2.1875 -57.109375 C 1.226562 -56.898438 0.460938 -56.722656 -0.109375 -56.578125 C -3.597656 -55.722656 -6.925781 -54.816406 -10.09375 -53.859375 C -13.257812 -52.898438 -16.515625 -51.78125 -19.859375 -50.5 C -20.492188 -50.21875 -21.078125 -49.914062 -21.609375 -49.59375 C -22.148438 -49.269531 -22.738281 -48.96875 -23.375 -48.6875 C -24.226562 -48.332031 -24.78125 -48.082031 -25.03125 -47.9375 C -25.28125 -47.789062 -25.40625 -47.609375 -25.40625 -47.390625 C -25.40625 -47.179688 -25.582031 -46.722656 -25.9375 -46.015625 C -26.226562 -45.941406 -26.515625 -45.882812 -26.796875 -45.84375 C -27.078125 -45.8125 -27.398438 -45.796875 -27.765625 -45.796875 C -28.328125 -45.796875 -28.835938 -45.921875 -29.296875 -46.171875 C -29.765625 -46.421875 -30 -46.90625 -30 -47.625 Z M -30 -47.625 "/></g></g></g><g fill="#efe1ff" fill-opacity="1"><g transform="translate(387.520568, 162.749989)"><g><path d="M 0.21875 -8.21875 C 0.21875 -11.78125 0.429688 -15.625 0.859375 -19.75 C 1.285156 -23.875 1.851562 -27.960938 2.5625 -32.015625 C 3.269531 -36.078125 4.050781 -39.75 4.90625 -43.03125 C 5.257812 -44.09375 5.613281 -45.28125 5.96875 -46.59375 C 6.332031 -47.914062 6.796875 -49.054688 7.359375 -50.015625 C 7.929688 -50.984375 8.679688 -51.46875 9.609375 -51.46875 C 10.460938 -51.46875 10.992188 -51.144531 11.203125 -50.5 C 11.421875 -49.863281 11.441406 -49.097656 11.265625 -48.203125 C 11.085938 -47.316406 10.851562 -46.5 10.5625 -45.75 C 10.28125 -45 10.101562 -44.484375 10.03125 -44.203125 C 9.46875 -42.066406 8.8125 -39.164062 8.0625 -35.5 C 7.3125 -31.832031 6.597656 -27.828125 5.921875 -23.484375 C 5.242188 -19.140625 4.726562 -14.832031 4.375 -10.5625 C 4.019531 -6.289062 3.945312 -2.429688 4.15625 1.015625 C 4.375 4.460938 4.945312 7.113281 5.875 8.96875 C 7.082031 8.320312 8.078125 7.359375 8.859375 6.078125 C 9.640625 4.796875 10.316406 3.550781 10.890625 2.34375 C 12.523438 -0.78125 14.125 -4.085938 15.6875 -7.578125 C 17.257812 -11.066406 18.898438 -14.34375 20.609375 -17.40625 C 21.171875 -18.539062 21.773438 -19.109375 22.421875 -19.109375 C 22.703125 -19.109375 22.929688 -18.984375 23.109375 -18.734375 C 23.285156 -18.484375 23.375 -18.21875 23.375 -17.9375 C 23.375 -17.71875 23.085938 -17.039062 22.515625 -15.90625 C 21.953125 -14.769531 21.367188 -13.59375 20.765625 -12.375 C 20.160156 -11.164062 19.75 -10.382812 19.53125 -10.03125 C 18.820312 -8.539062 18.019531 -6.796875 17.125 -4.796875 C 16.238281 -2.804688 15.367188 -0.851562 14.515625 1.0625 C 13.660156 2.988281 12.84375 4.628906 12.0625 5.984375 C 11.707031 6.546875 11.226562 7.304688 10.625 8.265625 C 10.019531 9.234375 9.359375 10.070312 8.640625 10.78125 C 7.929688 11.488281 7.113281 11.84375 6.1875 11.84375 C 4.769531 11.84375 3.648438 11.128906 2.828125 9.703125 C 2.003906 8.285156 1.414062 6.507812 1.0625 4.375 C 0.707031 2.238281 0.476562 0.0351562 0.375 -2.234375 C 0.269531 -4.515625 0.21875 -6.507812 0.21875 -8.21875 Z M 0.21875 -8.21875 "/></g></g></g><g fill="#efe1ff" fill-opacity="1"><g transform="translate(406.311984, 162.749989)"><g><path d="M 4.90625 -19.328125 C 6.257812 -20.035156 7.753906 -21.007812 9.390625 -22.25 C 11.023438 -23.5 11.914062 -24.976562 12.0625 -26.6875 C 11.132812 -26.550781 10.15625 -26.054688 9.125 -25.203125 C 8.09375 -24.347656 7.203125 -23.382812 6.453125 -22.3125 C 5.710938 -21.25 5.195312 -20.253906 4.90625 -19.328125 Z M 0.109375 -16.765625 C 0.109375 -18.546875 0.691406 -20.46875 1.859375 -22.53125 C 3.035156 -24.59375 4.492188 -26.351562 6.234375 -27.8125 C 7.984375 -29.269531 9.710938 -30 11.421875 -30 C 13.773438 -30 15.003906 -29.109375 15.109375 -27.328125 C 15.210938 -25.546875 14.445312 -23.625 12.8125 -21.5625 C 11.957031 -20.632812 10.675781 -19.566406 8.96875 -18.359375 C 7.257812 -17.148438 5.585938 -16.472656 3.953125 -16.328125 C 3.953125 -15.191406 3.984375 -14.175781 4.046875 -13.28125 C 4.117188 -12.394531 4.617188 -11.488281 5.546875 -10.5625 C 6.472656 -9.644531 7.648438 -9.1875 9.078125 -9.1875 C 10.921875 -9.1875 12.835938 -9.769531 14.828125 -10.9375 C 16.828125 -12.113281 18.363281 -13.09375 19.4375 -13.875 C 19.863281 -14.226562 20.195312 -14.507812 20.4375 -14.71875 C 20.6875 -14.9375 20.992188 -15.191406 21.359375 -15.484375 C 22.847656 -16.617188 23.785156 -17.453125 24.171875 -17.984375 C 24.566406 -18.523438 24.90625 -18.882812 25.1875 -19.0625 C 25.476562 -19.238281 26.15625 -19.328125 27.21875 -19.328125 C 27.363281 -18.546875 27.414062 -18.007812 27.375 -17.71875 C 27.34375 -17.4375 27.078125 -17.007812 26.578125 -16.4375 C 25.296875 -15.15625 23.675781 -13.695312 21.71875 -12.0625 C 19.769531 -10.425781 17.671875 -9.003906 15.421875 -7.796875 C 13.179688 -6.585938 10.957031 -5.984375 8.75 -5.984375 C 7.613281 -5.984375 6.53125 -6.175781 5.5 -6.5625 C 4.46875 -6.957031 3.488281 -7.617188 2.5625 -8.546875 C 1.28125 -9.828125 0.550781 -11.140625 0.375 -12.484375 C 0.195312 -13.835938 0.109375 -15.265625 0.109375 -16.765625 Z M 0.109375 -16.765625 "/></g></g></g><g fill="#efe1ff" fill-opacity="1"><g transform="translate(429.480958, 162.749989)"><g><path d="M 1.28125 17.609375 C 1.28125 19.109375 1.742188 19.859375 2.671875 19.859375 C 3.171875 19.859375 3.703125 19.679688 4.265625 19.328125 C 4.835938 18.972656 5.300781 18.648438 5.65625 18.359375 C 7.082031 17.296875 8.347656 15.675781 9.453125 13.5 C 10.554688 11.332031 11.351562 9.359375 11.84375 7.578125 C 12.207031 6.367188 12.40625 5.140625 12.4375 3.890625 C 12.46875 2.648438 12.484375 1.28125 12.484375 -0.21875 C 11.628906 0.28125 10.648438 1.148438 9.546875 2.390625 C 8.453125 3.640625 7.582031 4.65625 6.9375 5.4375 C 5.65625 7.007812 4.390625 8.894531 3.140625 11.09375 C 1.898438 13.300781 1.28125 15.472656 1.28125 17.609375 Z M 0.3125 -17.296875 C 0.3125 -19.148438 0.8125 -20.804688 1.8125 -22.265625 C 2.8125 -23.722656 4.003906 -24.894531 5.390625 -25.78125 C 6.773438 -26.675781 7.96875 -27.125 8.96875 -27.125 C 9.75 -27.125 10.332031 -26.835938 10.71875 -26.265625 C 11.113281 -25.691406 11.132812 -24.726562 10.78125 -23.375 C 9.925781 -23.164062 9.320312 -23.039062 8.96875 -23 C 8.613281 -22.96875 8.328125 -22.863281 8.109375 -22.6875 C 7.898438 -22.507812 7.507812 -22.097656 6.9375 -21.453125 C 5.507812 -19.890625 4.847656 -18.628906 4.953125 -17.671875 C 5.066406 -16.710938 5.640625 -15.820312 6.671875 -15 C 7.703125 -14.175781 8.984375 -13.160156 10.515625 -11.953125 C 12.046875 -10.742188 13.488281 -9.109375 14.84375 -7.046875 C 16.40625 -8.109375 18.003906 -9.351562 19.640625 -10.78125 L 29.578125 -17.71875 C 30.503906 -18.363281 31.300781 -18.8125 31.96875 -19.0625 C 32.644531 -19.3125 33.234375 -19.4375 33.734375 -19.4375 C 34.585938 -19.4375 34.941406 -19.078125 34.796875 -18.359375 C 34.660156 -17.648438 33.988281 -16.941406 32.78125 -16.234375 L 25.515625 -11.203125 C 25.234375 -11.066406 24.628906 -10.660156 23.703125 -9.984375 C 22.773438 -9.304688 21.757812 -8.554688 20.65625 -7.734375 C 19.550781 -6.921875 18.609375 -6.15625 17.828125 -5.4375 C 17.046875 -4.726562 16.617188 -4.269531 16.546875 -4.0625 C 16.472656 -3.695312 16.578125 -3.015625 16.859375 -2.015625 C 17.148438 -1.023438 17.347656 0.265625 17.453125 1.859375 C 17.554688 3.460938 17.34375 5.421875 16.8125 7.734375 C 16.28125 10.046875 15.125 12.734375 13.34375 15.796875 C 11.78125 18.429688 10.070312 20.367188 8.21875 21.609375 C 6.363281 22.859375 4.617188 23.484375 2.984375 23.484375 C 1.492188 23.484375 0.269531 22.984375 -0.6875 21.984375 C -1.65625 20.992188 -2.140625 19.535156 -2.140625 17.609375 C -2.140625 15.191406 -1.550781 12.84375 -0.375 10.5625 C 0.800781 8.289062 2.207031 6.191406 3.84375 4.265625 C 5.476562 2.347656 6.988281 0.695312 8.375 -0.6875 C 9.769531 -2.082031 10.679688 -3.097656 11.109375 -3.734375 C 10.253906 -5.234375 9.21875 -6.53125 8 -7.625 C 6.789062 -8.726562 5.597656 -9.742188 4.421875 -10.671875 C 3.253906 -11.597656 2.273438 -12.578125 1.484375 -13.609375 C 0.703125 -14.640625 0.3125 -15.867188 0.3125 -17.296875 Z M 0.3125 -17.296875 "/></g></g></g><g fill="#efe1ff" fill-opacity="1"><g transform="translate(460.337341, 162.749989)"><g><path d="M 1.28125 17.609375 C 1.28125 19.109375 1.742188 19.859375 2.671875 19.859375 C 3.171875 19.859375 3.703125 19.679688 4.265625 19.328125 C 4.835938 18.972656 5.300781 18.648438 5.65625 18.359375 C 7.082031 17.296875 8.347656 15.675781 9.453125 13.5 C 10.554688 11.332031 11.351562 9.359375 11.84375 7.578125 C 12.207031 6.367188 12.40625 5.140625 12.4375 3.890625 C 12.46875 2.648438 12.484375 1.28125 12.484375 -0.21875 C 11.628906 0.28125 10.648438 1.148438 9.546875 2.390625 C 8.453125 3.640625 7.582031 4.65625 6.9375 5.4375 C 5.65625 7.007812 4.390625 8.894531 3.140625 11.09375 C 1.898438 13.300781 1.28125 15.472656 1.28125 17.609375 Z M 0.3125 -17.296875 C 0.3125 -19.148438 0.8125 -20.804688 1.8125 -22.265625 C 2.8125 -23.722656 4.003906 -24.894531 5.390625 -25.78125 C 6.773438 -26.675781 7.96875 -27.125 8.96875 -27.125 C 9.75 -27.125 10.332031 -26.835938 10.71875 -26.265625 C 11.113281 -25.691406 11.132812 -24.726562 10.78125 -23.375 C 9.925781 -23.164062 9.320312 -23.039062 8.96875 -23 C 8.613281 -22.96875 8.328125 -22.863281 8.109375 -22.6875 C 7.898438 -22.507812 7.507812 -22.097656 6.9375 -21.453125 C 5.507812 -19.890625 4.847656 -18.628906 4.953125 -17.671875 C 5.066406 -16.710938 5.640625 -15.820312 6.671875 -15 C 7.703125 -14.175781 8.984375 -13.160156 10.515625 -11.953125 C 12.046875 -10.742188 13.488281 -9.109375 14.84375 -7.046875 C 16.40625 -8.109375 18.003906 -9.351562 19.640625 -10.78125 L 29.578125 -17.71875 C 30.503906 -18.363281 31.300781 -18.8125 31.96875 -19.0625 C 32.644531 -19.3125 33.234375 -19.4375 33.734375 -19.4375 C 34.585938 -19.4375 34.941406 -19.078125 34.796875 -18.359375 C 34.660156 -17.648438 33.988281 -16.941406 32.78125 -16.234375 L 25.515625 -11.203125 C 25.234375 -11.066406 24.628906 -10.660156 23.703125 -9.984375 C 22.773438 -9.304688 21.757812 -8.554688 20.65625 -7.734375 C 19.550781 -6.921875 18.609375 -6.15625 17.828125 -5.4375 C 17.046875 -4.726562 16.617188 -4.269531 16.546875 -4.0625 C 16.472656 -3.695312 16.578125 -3.015625 16.859375 -2.015625 C 17.148438 -1.023438 17.347656 0.265625 17.453125 1.859375 C 17.554688 3.460938 17.34375 5.421875 16.8125 7.734375 C 16.28125 10.046875 15.125 12.734375 13.34375 15.796875 C 11.78125 18.429688 10.070312 20.367188 8.21875 21.609375 C 6.363281 22.859375 4.617188 23.484375 2.984375 23.484375 C 1.492188 23.484375 0.269531 22.984375 -0.6875 21.984375 C -1.65625 20.992188 -2.140625 19.535156 -2.140625 17.609375 C -2.140625 15.191406 -1.550781 12.84375 -0.375 10.5625 C 0.800781 8.289062 2.207031 6.191406 3.84375 4.265625 C 5.476562 2.347656 6.988281 0.695312 8.375 -0.6875 C 9.769531 -2.082031 10.679688 -3.097656 11.109375 -3.734375 C 10.253906 -5.234375 9.21875 -6.53125 8 -7.625 C 6.789062 -8.726562 5.597656 -9.742188 4.421875 -10.671875 C 3.253906 -11.597656 2.273438 -12.578125 1.484375 -13.609375 C 0.703125 -14.640625 0.3125 -15.867188 0.3125 -17.296875 Z M 0.3125 -17.296875 "/></g></g></g><g fill="#efe1ff" fill-opacity="1"><g transform="translate(491.193723, 162.749989)"><g/></g></g><g fill="#efe1ff" fill-opacity="1"><g transform="translate(518.846996, 162.749989)"><g><path d="M 28.5 10.5625 C 33.269531 10.5625 37.828125 9.507812 42.171875 7.40625 C 46.515625 5.3125 50.5 2.648438 54.125 -0.578125 C 57.757812 -3.816406 60.820312 -7.144531 63.3125 -10.5625 C 66.226562 -14.34375 68.789062 -18.523438 71 -23.109375 C 73.207031 -27.703125 74.929688 -32.472656 76.171875 -37.421875 C 77.421875 -42.367188 78.046875 -47.191406 78.046875 -51.890625 C 78.046875 -55.804688 77.492188 -59.414062 76.390625 -62.71875 C 75.285156 -66.03125 73.679688 -68.679688 71.578125 -70.671875 C 69.484375 -72.671875 66.941406 -73.671875 63.953125 -73.671875 C 60.679688 -73.671875 57.617188 -72.691406 54.765625 -70.734375 C 51.921875 -68.773438 49.304688 -66.265625 46.921875 -63.203125 C 44.535156 -60.140625 42.46875 -56.972656 40.71875 -53.703125 C 38.976562 -50.429688 37.613281 -47.515625 36.625 -44.953125 L 32.453125 -33.84375 C 31.171875 -30 29.925781 -25.992188 28.71875 -21.828125 C 27.507812 -17.671875 26.515625 -13.671875 25.734375 -9.828125 C 25.585938 -8.898438 25.335938 -7.523438 24.984375 -5.703125 C 24.628906 -3.890625 24.253906 -1.972656 23.859375 0.046875 C 23.472656 2.078125 23.15625 3.960938 22.90625 5.703125 C 22.65625 7.453125 22.53125 8.71875 22.53125 9.5 C 23.09375 9.78125 24 10.023438 25.25 10.234375 C 26.5 10.453125 27.582031 10.5625 28.5 10.5625 Z M 22.53125 -11.75 C 22.53125 -11.8125 22.546875 -11.84375 22.578125 -11.84375 C 22.617188 -11.84375 22.640625 -11.878906 22.640625 -11.953125 L 23.921875 -17.078125 C 24.835938 -20.921875 26.023438 -25.226562 27.484375 -30 C 28.953125 -34.769531 30.644531 -39.554688 32.5625 -44.359375 C 34.488281 -49.160156 36.640625 -53.660156 39.015625 -57.859375 C 41.398438 -62.066406 43.945312 -65.519531 46.65625 -68.21875 C 49.21875 -70.78125 51.832031 -72.953125 54.5 -74.734375 C 57.164062 -76.515625 60.390625 -77.40625 64.171875 -77.40625 C 67.085938 -77.40625 69.71875 -76.675781 72.0625 -75.21875 C 74.414062 -73.757812 76.410156 -71.75 78.046875 -69.1875 C 79.960938 -66.125 81.238281 -62.757812 81.875 -59.09375 C 82.519531 -55.425781 82.664062 -51.648438 82.3125 -47.765625 C 81.957031 -43.890625 81.316406 -40.101562 80.390625 -36.40625 C 79.460938 -32.707031 78.429688 -29.363281 77.296875 -26.375 C 75.585938 -21.675781 73.09375 -16.921875 69.8125 -12.109375 C 66.539062 -7.304688 62.753906 -2.878906 58.453125 1.171875 C 54.148438 5.234375 49.46875 8.488281 44.40625 10.9375 C 39.351562 13.394531 34.160156 14.625 28.828125 14.625 C 27.117188 14.625 25.75 14.460938 24.71875 14.140625 C 23.6875 13.828125 22.671875 13.632812 21.671875 13.5625 L 20.171875 30.96875 C 20.035156 31.820312 19.929688 33.222656 19.859375 35.171875 C 19.785156 37.128906 19.710938 39.085938 19.640625 41.046875 C 19.566406 43.003906 19.460938 44.519531 19.328125 45.59375 C 19.179688 47.300781 19.070312 48.9375 19 50.5 C 18.925781 52.0625 18.765625 53.34375 18.515625 54.34375 C 18.273438 55.34375 17.691406 55.84375 16.765625 55.84375 C 16.191406 55.84375 15.617188 55.695312 15.046875 55.40625 C 14.765625 54.34375 14.601562 52.507812 14.5625 49.90625 C 14.53125 47.3125 14.550781 44.484375 14.625 41.421875 C 14.695312 38.359375 14.785156 35.472656 14.890625 32.765625 C 14.992188 30.066406 15.046875 28.039062 15.046875 26.6875 C 15.046875 25.125 15.097656 23.738281 15.203125 22.53125 C 15.316406 21.320312 15.375 20.039062 15.375 18.6875 C 15.375 17.050781 15.410156 15.695312 15.484375 14.625 C 15.554688 13.5625 15.59375 12.316406 15.59375 10.890625 C 15.226562 10.535156 14.816406 10.210938 14.359375 9.921875 C 13.898438 9.640625 13.457031 9.359375 13.03125 9.078125 C 11.75 8.148438 11.140625 7.222656 11.203125 6.296875 C 11.273438 5.367188 11.703125 4.90625 12.484375 4.90625 C 12.984375 4.90625 13.410156 5.050781 13.765625 5.34375 C 14.265625 5.625 14.65625 5.867188 14.9375 6.078125 C 15.226562 6.296875 15.445312 6.40625 15.59375 6.40625 C 15.875 6.40625 15.992188 6.015625 15.953125 5.234375 C 15.921875 4.453125 15.941406 3.0625 16.015625 1.0625 C 16.015625 0.144531 16.066406 -0.488281 16.171875 -0.84375 C 16.273438 -1.207031 16.328125 -1.816406 16.328125 -2.671875 C 16.398438 -3.378906 16.414062 -4.109375 16.375 -4.859375 C 16.34375 -5.609375 16.363281 -6.335938 16.4375 -7.046875 C 16.507812 -7.828125 16.582031 -8.46875 16.65625 -8.96875 C 16.726562 -9.46875 16.765625 -10.179688 16.765625 -11.109375 C 16.765625 -13.304688 16.832031 -15.898438 16.96875 -18.890625 C 17.113281 -21.878906 17.273438 -24.867188 17.453125 -27.859375 C 17.628906 -30.847656 17.71875 -33.484375 17.71875 -35.765625 C 17.71875 -37.191406 17.769531 -39.097656 17.875 -41.484375 C 17.988281 -43.867188 18.046875 -46.394531 18.046875 -49.0625 C 18.046875 -51.726562 17.972656 -54.21875 17.828125 -56.53125 C 17.679688 -58.84375 17.328125 -60.566406 16.765625 -61.703125 C 15.984375 -61.210938 15.234375 -60.34375 14.515625 -59.09375 C 13.804688 -57.84375 13.148438 -56.503906 12.546875 -55.078125 C 11.941406 -53.660156 11.425781 -52.421875 11 -51.359375 C 10.351562 -49.578125 9.78125 -47.457031 9.28125 -45 C 8.789062 -42.539062 8.363281 -40.390625 8 -38.546875 C 7.71875 -36.117188 7.628906 -33.640625 7.734375 -31.109375 C 7.847656 -28.585938 8.082031 -26.257812 8.4375 -24.125 C 8.9375 -21.707031 9.46875 -20.015625 10.03125 -19.046875 C 10.601562 -18.085938 11.140625 -17.46875 11.640625 -17.1875 C 12.140625 -16.90625 12.457031 -16.550781 12.59375 -16.125 C 12.945312 -15.625 12.984375 -15.160156 12.703125 -14.734375 C 12.421875 -14.304688 11.992188 -14.09375 11.421875 -14.09375 C 10.785156 -14.09375 10.019531 -14.445312 9.125 -15.15625 C 8.238281 -15.875 7.40625 -17.117188 6.625 -18.890625 C 5.832031 -21.023438 5.328125 -22.894531 5.109375 -24.5 C 4.898438 -26.101562 4.65625 -28.007812 4.375 -30.21875 C 4.300781 -30.925781 4.316406 -31.507812 4.421875 -31.96875 C 4.535156 -32.4375 4.59375 -33.132812 4.59375 -34.0625 C 4.59375 -37.976562 5 -41.785156 5.8125 -45.484375 C 6.632812 -49.179688 7.722656 -52.738281 9.078125 -56.15625 C 9.503906 -57.15625 10.085938 -58.4375 10.828125 -60 C 11.578125 -61.5625 12.46875 -62.96875 13.5 -64.21875 C 14.53125 -65.46875 15.617188 -66.09375 16.765625 -66.09375 C 18.253906 -66.09375 19.425781 -65.453125 20.28125 -64.171875 C 21.132812 -62.890625 21.753906 -61.269531 22.140625 -59.3125 C 22.535156 -57.351562 22.785156 -55.285156 22.890625 -53.109375 C 23.003906 -50.941406 23.0625 -48.96875 23.0625 -47.1875 C 23.0625 -41.070312 22.972656 -35.054688 22.796875 -29.140625 C 22.617188 -23.234375 22.53125 -17.4375 22.53125 -11.75 Z M 22.53125 -11.75 "/></g></g></g><g fill="#efe1ff" fill-opacity="1"><g transform="translate(601.593313, 162.749989)"><g><path d="M 4.90625 -19.328125 C 6.257812 -20.035156 7.753906 -21.007812 9.390625 -22.25 C 11.023438 -23.5 11.914062 -24.976562 12.0625 -26.6875 C 11.132812 -26.550781 10.15625 -26.054688 9.125 -25.203125 C 8.09375 -24.347656 7.203125 -23.382812 6.453125 -22.3125 C 5.710938 -21.25 5.195312 -20.253906 4.90625 -19.328125 Z M 0.109375 -16.765625 C 0.109375 -18.546875 0.691406 -20.46875 1.859375 -22.53125 C 3.035156 -24.59375 4.492188 -26.351562 6.234375 -27.8125 C 7.984375 -29.269531 9.710938 -30 11.421875 -30 C 13.773438 -30 15.003906 -29.109375 15.109375 -27.328125 C 15.210938 -25.546875 14.445312 -23.625 12.8125 -21.5625 C 11.957031 -20.632812 10.675781 -19.566406 8.96875 -18.359375 C 7.257812 -17.148438 5.585938 -16.472656 3.953125 -16.328125 C 3.953125 -15.191406 3.984375 -14.175781 4.046875 -13.28125 C 4.117188 -12.394531 4.617188 -11.488281 5.546875 -10.5625 C 6.472656 -9.644531 7.648438 -9.1875 9.078125 -9.1875 C 10.921875 -9.1875 12.835938 -9.769531 14.828125 -10.9375 C 16.828125 -12.113281 18.363281 -13.09375 19.4375 -13.875 C 19.863281 -14.226562 20.195312 -14.507812 20.4375 -14.71875 C 20.6875 -14.9375 20.992188 -15.191406 21.359375 -15.484375 C 22.847656 -16.617188 23.785156 -17.453125 24.171875 -17.984375 C 24.566406 -18.523438 24.90625 -18.882812 25.1875 -19.0625 C 25.476562 -19.238281 26.15625 -19.328125 27.21875 -19.328125 C 27.363281 -18.546875 27.414062 -18.007812 27.375 -17.71875 C 27.34375 -17.4375 27.078125 -17.007812 26.578125 -16.4375 C 25.296875 -15.15625 23.675781 -13.695312 21.71875 -12.0625 C 19.769531 -10.425781 17.671875 -9.003906 15.421875 -7.796875 C 13.179688 -6.585938 10.957031 -5.984375 8.75 -5.984375 C 7.613281 -5.984375 6.53125 -6.175781 5.5 -6.5625 C 4.46875 -6.957031 3.488281 -7.617188 2.5625 -8.546875 C 1.28125 -9.828125 0.550781 -11.140625 0.375 -12.484375 C 0.195312 -13.835938 0.109375 -15.265625 0.109375 -16.765625 Z M 0.109375 -16.765625 "/></g></g></g><g fill="#efe1ff" fill-opacity="1"><g transform="translate(624.762288, 162.749989)"><g><path d="M 1.5 -0.421875 C 0.78125 -0.421875 0.347656 -0.863281 0.203125 -1.75 C 0.0664062 -2.644531 0.0351562 -3.585938 0.109375 -4.578125 C 0.179688 -5.578125 0.21875 -6.1875 0.21875 -6.40625 C 0.144531 -7.6875 0.125 -8.984375 0.15625 -10.296875 C 0.195312 -11.617188 0.179688 -12.957031 0.109375 -14.3125 C 0.109375 -14.800781 0.125 -15.738281 0.15625 -17.125 C 0.195312 -18.519531 0.304688 -20 0.484375 -21.5625 C 0.660156 -23.132812 0.925781 -24.488281 1.28125 -25.625 C 1.632812 -26.757812 2.097656 -27.328125 2.671875 -27.328125 C 4.085938 -27.328125 4.8125 -26.863281 4.84375 -25.9375 C 4.882812 -25.019531 4.835938 -23.8125 4.703125 -22.3125 C 4.628906 -21.8125 4.59375 -21.257812 4.59375 -20.65625 C 4.59375 -20.050781 4.59375 -19.460938 4.59375 -18.890625 C 4.59375 -18.179688 4.554688 -17.71875 4.484375 -17.5 C 4.410156 -17.289062 4.375 -16.832031 4.375 -16.125 C 5.15625 -16.6875 5.863281 -17.34375 6.5 -18.09375 C 7.144531 -18.84375 8.285156 -19.21875 9.921875 -19.21875 C 10.421875 -19.21875 11.078125 -19.234375 11.890625 -19.265625 C 12.710938 -19.304688 13.585938 -19.328125 14.515625 -19.328125 C 16.085938 -19.328125 17.546875 -19.238281 18.890625 -19.0625 C 20.242188 -18.882812 20.921875 -18.4375 20.921875 -17.71875 C 20.921875 -17.007812 20.546875 -16.546875 19.796875 -16.328125 C 19.054688 -16.117188 18.148438 -16.015625 17.078125 -16.015625 C 16.367188 -16.015625 15.640625 -16.03125 14.890625 -16.0625 C 14.140625 -16.101562 13.484375 -16.125 12.921875 -16.125 C 10.921875 -16.125 9.582031 -16.015625 8.90625 -15.796875 C 8.238281 -15.585938 7.476562 -14.769531 6.625 -13.34375 C 6.125 -12.414062 5.640625 -11.414062 5.171875 -10.34375 C 4.710938 -9.28125 4.375 -8.109375 4.15625 -6.828125 C 3.945312 -5.898438 3.859375 -4.9375 3.890625 -3.9375 C 3.929688 -2.945312 3.828125 -2.113281 3.578125 -1.4375 C 3.328125 -0.757812 2.632812 -0.421875 1.5 -0.421875 Z M 1.5 -0.421875 "/></g></g></g><g fill="#efe1ff" fill-opacity="1"><g transform="translate(642.165729, 162.749989)"><g><path d="M 1.28125 17.609375 C 1.28125 19.109375 1.742188 19.859375 2.671875 19.859375 C 3.171875 19.859375 3.703125 19.679688 4.265625 19.328125 C 4.835938 18.972656 5.300781 18.648438 5.65625 18.359375 C 7.082031 17.296875 8.347656 15.675781 9.453125 13.5 C 10.554688 11.332031 11.351562 9.359375 11.84375 7.578125 C 12.207031 6.367188 12.40625 5.140625 12.4375 3.890625 C 12.46875 2.648438 12.484375 1.28125 12.484375 -0.21875 C 11.628906 0.28125 10.648438 1.148438 9.546875 2.390625 C 8.453125 3.640625 7.582031 4.65625 6.9375 5.4375 C 5.65625 7.007812 4.390625 8.894531 3.140625 11.09375 C 1.898438 13.300781 1.28125 15.472656 1.28125 17.609375 Z M 0.3125 -17.296875 C 0.3125 -19.148438 0.8125 -20.804688 1.8125 -22.265625 C 2.8125 -23.722656 4.003906 -24.894531 5.390625 -25.78125 C 6.773438 -26.675781 7.96875 -27.125 8.96875 -27.125 C 9.75 -27.125 10.332031 -26.835938 10.71875 -26.265625 C 11.113281 -25.691406 11.132812 -24.726562 10.78125 -23.375 C 9.925781 -23.164062 9.320312 -23.039062 8.96875 -23 C 8.613281 -22.96875 8.328125 -22.863281 8.109375 -22.6875 C 7.898438 -22.507812 7.507812 -22.097656 6.9375 -21.453125 C 5.507812 -19.890625 4.847656 -18.628906 4.953125 -17.671875 C 5.066406 -16.710938 5.640625 -15.820312 6.671875 -15 C 7.703125 -14.175781 8.984375 -13.160156 10.515625 -11.953125 C 12.046875 -10.742188 13.488281 -9.109375 14.84375 -7.046875 C 16.40625 -8.109375 18.003906 -9.351562 19.640625 -10.78125 L 29.578125 -17.71875 C 30.503906 -18.363281 31.300781 -18.8125 31.96875 -19.0625 C 32.644531 -19.3125 33.234375 -19.4375 33.734375 -19.4375 C 34.585938 -19.4375 34.941406 -19.078125 34.796875 -18.359375 C 34.660156 -17.648438 33.988281 -16.941406 32.78125 -16.234375 L 25.515625 -11.203125 C 25.234375 -11.066406 24.628906 -10.660156 23.703125 -9.984375 C 22.773438 -9.304688 21.757812 -8.554688 20.65625 -7.734375 C 19.550781 -6.921875 18.609375 -6.15625 17.828125 -5.4375 C 17.046875 -4.726562 16.617188 -4.269531 16.546875 -4.0625 C 16.472656 -3.695312 16.578125 -3.015625 16.859375 -2.015625 C 17.148438 -1.023438 17.347656 0.265625 17.453125 1.859375 C 17.554688 3.460938 17.34375 5.421875 16.8125 7.734375 C 16.28125 10.046875 15.125 12.734375 13.34375 15.796875 C 11.78125 18.429688 10.070312 20.367188 8.21875 21.609375 C 6.363281 22.859375 4.617188 23.484375 2.984375 23.484375 C 1.492188 23.484375 0.269531 22.984375 -0.6875 21.984375 C -1.65625 20.992188 -2.140625 19.535156 -2.140625 17.609375 C -2.140625 15.191406 -1.550781 12.84375 -0.375 10.5625 C 0.800781 8.289062 2.207031 6.191406 3.84375 4.265625 C 5.476562 2.347656 6.988281 0.695312 8.375 -0.6875 C 9.769531 -2.082031 10.679688 -3.097656 11.109375 -3.734375 C 10.253906 -5.234375 9.21875 -6.53125 8 -7.625 C 6.789062 -8.726562 5.597656 -9.742188 4.421875 -10.671875 C 3.253906 -11.597656 2.273438 -12.578125 1.484375 -13.609375 C 0.703125 -14.640625 0.3125 -15.867188 0.3125 -17.296875 Z M 0.3125 -17.296875 "/></g></g></g><g fill="#efe1ff" fill-opacity="1"><g transform="translate(673.022111, 162.749989)"><g><path d="M 5.34375 -2.453125 C 6.40625 -2.734375 7.363281 -3.675781 8.21875 -5.28125 C 9.070312 -6.882812 9.675781 -8.71875 10.03125 -10.78125 C 10.382812 -12.84375 10.472656 -14.742188 10.296875 -16.484375 C 10.117188 -18.234375 9.566406 -19.429688 8.640625 -20.078125 C 8.429688 -19.285156 8.039062 -18.160156 7.46875 -16.703125 C 6.90625 -15.242188 6.351562 -13.640625 5.8125 -11.890625 C 5.28125 -10.148438 4.925781 -8.441406 4.75 -6.765625 C 4.570312 -5.097656 4.769531 -3.660156 5.34375 -2.453125 Z M 0 -6.078125 C 0 -7.003906 0.191406 -8.375 0.578125 -10.1875 C 0.972656 -12.007812 1.523438 -13.96875 2.234375 -16.0625 C 2.953125 -18.164062 3.753906 -20.160156 4.640625 -22.046875 C 5.535156 -23.929688 6.5 -25.476562 7.53125 -26.6875 C 8.5625 -27.894531 9.609375 -28.5 10.671875 -28.5 C 11.390625 -28.5 11.890625 -28.175781 12.171875 -27.53125 C 12.453125 -26.894531 12.523438 -26.363281 12.390625 -25.9375 C 12.242188 -25.582031 11.972656 -25.226562 11.578125 -24.875 C 11.191406 -24.519531 10.851562 -24.128906 10.5625 -23.703125 C 10.707031 -23.203125 11.0625 -22.648438 11.625 -22.046875 C 12.195312 -21.441406 12.769531 -20.640625 13.34375 -19.640625 C 13.914062 -18.648438 14.289062 -17.300781 14.46875 -15.59375 C 14.644531 -13.882812 14.445312 -11.640625 13.875 -8.859375 C 13.09375 -5.160156 11.847656 -2.382812 10.140625 -0.53125 C 8.429688 1.3125 6.757812 2.234375 5.125 2.234375 C 3.769531 2.234375 2.578125 1.539062 1.546875 0.15625 C 0.515625 -1.226562 0 -3.304688 0 -6.078125 Z M 0 -6.078125 "/></g></g></g><g fill="#efe1ff" fill-opacity="1"><g transform="translate(691.813538, 162.749989)"><g><path d="M 2.984375 -5.546875 C 1.628906 -5.546875 0.753906 -6.363281 0.359375 -8 C -0.0234375 -9.644531 -0.078125 -11.691406 0.203125 -14.140625 C 0.492188 -16.597656 1.007812 -19.054688 1.75 -21.515625 C 2.5 -23.972656 3.335938 -26.019531 4.265625 -27.65625 C 5.191406 -29.289062 6.046875 -30.109375 6.828125 -30.109375 C 8.035156 -30.109375 8.601562 -29.554688 8.53125 -28.453125 C 8.46875 -27.347656 8.113281 -25.890625 7.46875 -24.078125 C 6.832031 -22.265625 6.191406 -20.269531 5.546875 -18.09375 C 4.910156 -15.925781 4.59375 -13.8125 4.59375 -11.75 L 9.71875 -19.53125 C 9.925781 -19.957031 10.382812 -20.703125 11.09375 -21.765625 C 11.8125 -22.835938 12.613281 -23.835938 13.5 -24.765625 C 14.394531 -25.691406 15.269531 -26.15625 16.125 -26.15625 C 16.976562 -26.15625 17.65625 -25.585938 18.15625 -24.453125 L 18.796875 -18.46875 C 18.796875 -17.832031 18.828125 -16.835938 18.890625 -15.484375 C 18.960938 -14.128906 19.125 -12.753906 19.375 -11.359375 C 19.625 -9.972656 20.03125 -8.78125 20.59375 -7.78125 C 21.164062 -6.789062 21.953125 -6.296875 22.953125 -6.296875 C 24.023438 -6.296875 25.144531 -6.9375 26.3125 -8.21875 C 27.488281 -9.5 28.628906 -10.972656 29.734375 -12.640625 C 30.835938 -14.316406 31.832031 -15.796875 32.71875 -17.078125 C 33.613281 -18.359375 34.3125 -19 34.8125 -19 C 35.875 -19 36.367188 -18.585938 36.296875 -17.765625 C 36.222656 -16.953125 35.863281 -16.007812 35.21875 -14.9375 C 34.582031 -13.875 33.925781 -12.878906 33.25 -11.953125 C 32.582031 -11.023438 32.175781 -10.457031 32.03125 -10.25 C 31.53125 -9.601562 30.851562 -8.78125 30 -7.78125 C 29.144531 -6.789062 28.253906 -5.867188 27.328125 -5.015625 C 26.398438 -4.160156 25.507812 -3.628906 24.65625 -3.421875 C 23.945312 -3.203125 23.273438 -3.09375 22.640625 -3.09375 C 20.992188 -3.09375 19.691406 -3.695312 18.734375 -4.90625 C 17.773438 -6.113281 17.046875 -7.429688 16.546875 -8.859375 C 15.835938 -10.992188 15.445312 -12.894531 15.375 -14.5625 C 15.300781 -16.238281 15.300781 -17.664062 15.375 -18.84375 C 15.445312 -20.019531 15.304688 -20.925781 14.953125 -21.5625 C 14.097656 -21 13.1875 -19.863281 12.21875 -18.15625 C 11.257812 -16.445312 10.265625 -14.613281 9.234375 -12.65625 C 8.203125 -10.695312 7.171875 -9.019531 6.140625 -7.625 C 5.109375 -6.238281 4.054688 -5.546875 2.984375 -5.546875 Z M 2.984375 -5.546875 "/></g></g></g><g fill="#efe1ff" fill-opacity="1"><g transform="translate(723.844359, 162.749989)"><g><path d="M 0 -10.78125 C 0 -12.28125 0.351562 -14.128906 1.0625 -16.328125 C 1.78125 -18.535156 2.78125 -20.722656 4.0625 -22.890625 C 5.34375 -25.066406 6.816406 -26.863281 8.484375 -28.28125 C 10.160156 -29.707031 11.921875 -30.421875 13.765625 -30.421875 C 15.472656 -30.421875 16.859375 -29.921875 17.921875 -28.921875 C 18.992188 -27.929688 19.632812 -26.921875 19.84375 -25.890625 C 20.0625 -24.859375 19.710938 -24.34375 18.796875 -24.34375 C 18.078125 -24.34375 17.34375 -24.75 16.59375 -25.5625 C 15.851562 -26.382812 14.984375 -26.796875 13.984375 -26.796875 C 13.203125 -26.796875 12.257812 -26.332031 11.15625 -25.40625 C 10.050781 -24.476562 8.71875 -22.664062 7.15625 -19.96875 C 6.4375 -18.820312 5.773438 -17.34375 5.171875 -15.53125 C 4.566406 -13.71875 4.265625 -11.921875 4.265625 -10.140625 C 4.410156 -10.285156 4.460938 -10.335938 4.421875 -10.296875 C 4.390625 -10.265625 4.515625 -10.390625 4.796875 -10.671875 L 5.65625 -11.953125 C 6.226562 -12.804688 6.882812 -13.910156 7.625 -15.265625 C 8.375 -16.617188 9.140625 -17.988281 9.921875 -19.375 C 10.710938 -20.757812 11.425781 -21.929688 12.0625 -22.890625 C 12.707031 -23.859375 13.207031 -24.34375 13.5625 -24.34375 C 14.84375 -24.34375 15.585938 -23.878906 15.796875 -22.953125 C 16.015625 -22.023438 16.101562 -20.882812 16.0625 -19.53125 C 16.03125 -18.1875 16.15625 -16.835938 16.4375 -15.484375 C 16.863281 -13.554688 17.519531 -12.144531 18.40625 -11.25 C 19.300781 -10.363281 20.316406 -9.921875 21.453125 -9.921875 C 23.453125 -9.921875 25.660156 -11.132812 28.078125 -13.5625 C 29.078125 -14.488281 29.789062 -15.253906 30.21875 -15.859375 C 30.644531 -16.460938 31.210938 -17.15625 31.921875 -17.9375 C 32.421875 -18.644531 33.0625 -19 33.84375 -19 C 34.625 -19 34.960938 -18.335938 34.859375 -17.015625 C 34.753906 -15.703125 33.347656 -13.734375 30.640625 -11.109375 L 27.4375 -8.546875 C 25.375 -7.117188 23.378906 -6.40625 21.453125 -6.40625 C 19.679688 -6.40625 18.132812 -6.9375 16.8125 -8 C 15.5 -9.070312 14.484375 -10.390625 13.765625 -11.953125 C 13.054688 -13.523438 12.703125 -15.054688 12.703125 -16.546875 C 12.203125 -16.191406 11.628906 -15.410156 10.984375 -14.203125 C 10.347656 -12.992188 9.65625 -11.691406 8.90625 -10.296875 C 8.164062 -8.910156 7.398438 -7.703125 6.609375 -6.671875 C 5.828125 -5.640625 5.046875 -5.125 4.265625 -5.125 C 2.273438 -5.125 1.066406 -5.585938 0.640625 -6.515625 C 0.210938 -7.441406 0 -8.863281 0 -10.78125 Z M 0 -10.78125 "/></g></g></g><g fill="#efe1ff" fill-opacity="1"><g transform="translate(754.807492, 162.749989)"><g><path d="M 0.21875 -8.21875 C 0.21875 -11.78125 0.429688 -15.625 0.859375 -19.75 C 1.285156 -23.875 1.851562 -27.960938 2.5625 -32.015625 C 3.269531 -36.078125 4.050781 -39.75 4.90625 -43.03125 C 5.257812 -44.09375 5.613281 -45.28125 5.96875 -46.59375 C 6.332031 -47.914062 6.796875 -49.054688 7.359375 -50.015625 C 7.929688 -50.984375 8.679688 -51.46875 9.609375 -51.46875 C 10.460938 -51.46875 10.992188 -51.144531 11.203125 -50.5 C 11.421875 -49.863281 11.441406 -49.097656 11.265625 -48.203125 C 11.085938 -47.316406 10.851562 -46.5 10.5625 -45.75 C 10.28125 -45 10.101562 -44.484375 10.03125 -44.203125 C 9.46875 -42.066406 8.8125 -39.164062 8.0625 -35.5 C 7.3125 -31.832031 6.597656 -27.828125 5.921875 -23.484375 C 5.242188 -19.140625 4.726562 -14.832031 4.375 -10.5625 C 4.019531 -6.289062 3.945312 -2.429688 4.15625 1.015625 C 4.375 4.460938 4.945312 7.113281 5.875 8.96875 C 7.082031 8.320312 8.078125 7.359375 8.859375 6.078125 C 9.640625 4.796875 10.316406 3.550781 10.890625 2.34375 C 12.523438 -0.78125 14.125 -4.085938 15.6875 -7.578125 C 17.257812 -11.066406 18.898438 -14.34375 20.609375 -17.40625 C 21.171875 -18.539062 21.773438 -19.109375 22.421875 -19.109375 C 22.703125 -19.109375 22.929688 -18.984375 23.109375 -18.734375 C 23.285156 -18.484375 23.375 -18.21875 23.375 -17.9375 C 23.375 -17.71875 23.085938 -17.039062 22.515625 -15.90625 C 21.953125 -14.769531 21.367188 -13.59375 20.765625 -12.375 C 20.160156 -11.164062 19.75 -10.382812 19.53125 -10.03125 C 18.820312 -8.539062 18.019531 -6.796875 17.125 -4.796875 C 16.238281 -2.804688 15.367188 -0.851562 14.515625 1.0625 C 13.660156 2.988281 12.84375 4.628906 12.0625 5.984375 C 11.707031 6.546875 11.226562 7.304688 10.625 8.265625 C 10.019531 9.234375 9.359375 10.070312 8.640625 10.78125 C 7.929688 11.488281 7.113281 11.84375 6.1875 11.84375 C 4.769531 11.84375 3.648438 11.128906 2.828125 9.703125 C 2.003906 8.285156 1.414062 6.507812 1.0625 4.375 C 0.707031 2.238281 0.476562 0.0351562 0.375 -2.234375 C 0.269531 -4.515625 0.21875 -6.507812 0.21875 -8.21875 Z M 0.21875 -8.21875 "/></g></g></g><g fill="#efe1ff" fill-opacity="1"><g transform="translate(773.598918, 162.749989)"><g/></g></g><g fill="#efe1ff" fill-opacity="1"><g transform="translate(801.252191, 162.749989)"><g><path d="M 0 11.203125 C 0 5.648438 0.335938 -0.21875 1.015625 -6.40625 C 1.691406 -12.59375 2.582031 -18.726562 3.6875 -24.8125 C 4.789062 -30.90625 5.945312 -36.515625 7.15625 -41.640625 C 7.507812 -43.128906 8.078125 -45.382812 8.859375 -48.40625 C 9.640625 -51.4375 10.546875 -54.800781 11.578125 -58.5 C 12.609375 -62.207031 13.675781 -65.875 14.78125 -69.5 C 15.882812 -73.132812 16.953125 -76.335938 17.984375 -79.109375 C 19.015625 -81.890625 19.890625 -83.773438 20.609375 -84.765625 C 21.316406 -85.691406 22.171875 -86.15625 23.171875 -86.15625 C 23.953125 -86.15625 24.554688 -85.765625 24.984375 -84.984375 C 25.410156 -84.203125 25.300781 -82.992188 24.65625 -81.359375 C 20.75 -70.390625 17.316406 -59.175781 14.359375 -47.71875 C 11.398438 -36.257812 9.175781 -24.726562 7.6875 -13.125 C 7.40625 -11.207031 7.082031 -8.96875 6.71875 -6.40625 C 6.363281 -3.84375 6.0625 -1.300781 5.8125 1.21875 C 5.5625 3.75 5.4375 6.007812 5.4375 8 C 5.4375 10.5 5.363281 12.65625 5.21875 14.46875 C 5.082031 16.28125 5.050781 18.269531 5.125 20.4375 C 5.195312 22.613281 5.585938 25.445312 6.296875 28.9375 C 7.429688 34.269531 8.890625 36.9375 10.671875 36.9375 C 11.816406 36.9375 13.046875 36.082031 14.359375 34.375 C 15.671875 32.664062 17.078125 30.425781 18.578125 27.65625 L 35.65625 -3.3125 C 35.945312 -3.738281 36.179688 -4.109375 36.359375 -4.421875 C 36.535156 -4.742188 36.765625 -5.15625 37.046875 -5.65625 C 37.328125 -6.15625 37.820312 -7.113281 38.53125 -8.53125 C 39.25 -9.957031 40.070312 -11.472656 41 -13.078125 C 41.925781 -14.679688 42.796875 -16.066406 43.609375 -17.234375 C 44.429688 -18.410156 45.054688 -19 45.484375 -19 C 46.484375 -19 46.984375 -18.503906 46.984375 -17.515625 C 46.984375 -17.085938 46.625 -16.140625 45.90625 -14.671875 C 45.195312 -13.210938 44.359375 -11.59375 43.390625 -9.8125 C 42.429688 -8.039062 41.523438 -6.390625 40.671875 -4.859375 C 39.816406 -3.328125 39.210938 -2.238281 38.859375 -1.59375 L 23.921875 25.734375 C 23.347656 26.867188 22.578125 28.289062 21.609375 30 C 20.648438 31.707031 19.566406 33.394531 18.359375 35.0625 C 17.148438 36.738281 15.851562 38.144531 14.46875 39.28125 C 13.082031 40.425781 11.640625 41 10.140625 41 C 8.222656 41 6.640625 40.195312 5.390625 38.59375 C 4.140625 36.988281 3.160156 34.921875 2.453125 32.390625 C 1.742188 29.867188 1.207031 27.21875 0.84375 24.4375 C 0.488281 21.664062 0.257812 19.085938 0.15625 16.703125 C 0.0507812 14.316406 0 12.484375 0 11.203125 Z M 0 11.203125 "/></g></g></g><g fill="#efe1ff" fill-opacity="1"><g transform="translate(843.105796, 162.749989)"><g><path d="M 8.859375 0.421875 C 7.429688 0.421875 6.164062 -0.0351562 5.0625 -0.953125 C 3.96875 -1.878906 3.132812 -2.84375 2.5625 -3.84375 C 1.28125 -6.257812 0.550781 -9.125 0.375 -12.4375 C 0.195312 -15.75 0.390625 -18.753906 0.953125 -21.453125 C 1.097656 -22.242188 1.296875 -23.1875 1.546875 -24.28125 C 1.796875 -25.382812 2.171875 -26.363281 2.671875 -27.21875 C 3.171875 -28.070312 3.773438 -28.5 4.484375 -28.5 C 6.117188 -28.5 6.914062 -27.945312 6.875 -26.84375 C 6.84375 -25.75 6.539062 -24.039062 5.96875 -21.71875 C 5.40625 -19.40625 5.125 -16.4375 5.125 -12.8125 C 5.125 -11.738281 5.265625 -10.453125 5.546875 -8.953125 C 5.835938 -7.460938 6.285156 -6.148438 6.890625 -5.015625 C 7.492188 -3.878906 8.257812 -3.3125 9.1875 -3.3125 C 10.320312 -3.3125 11.617188 -3.804688 13.078125 -4.796875 C 14.535156 -5.796875 15.882812 -6.914062 17.125 -8.15625 C 18.375 -9.40625 19.25 -10.351562 19.75 -11 C 19.894531 -11.132812 20.285156 -11.613281 20.921875 -12.4375 C 21.566406 -13.257812 22.332031 -14.1875 23.21875 -15.21875 C 24.113281 -16.25 24.988281 -17.15625 25.84375 -17.9375 C 26.695312 -18.71875 27.367188 -19.109375 27.859375 -19.109375 C 28.359375 -19.109375 28.609375 -18.679688 28.609375 -17.828125 C 28.609375 -17.328125 28.269531 -16.5625 27.59375 -15.53125 C 26.914062 -14.5 26.113281 -13.410156 25.1875 -12.265625 C 24.269531 -11.128906 23.363281 -10.0625 22.46875 -9.0625 C 21.582031 -8.070312 20.925781 -7.363281 20.5 -6.9375 C 19.644531 -6.082031 18.628906 -5.066406 17.453125 -3.890625 C 16.273438 -2.722656 14.972656 -1.710938 13.546875 -0.859375 C 12.128906 -0.00390625 10.566406 0.421875 8.859375 0.421875 Z M 5.4375 -41.953125 C 5.4375 -43.171875 5.753906 -44.222656 6.390625 -45.109375 C 7.035156 -45.992188 7.753906 -46.4375 8.546875 -46.4375 C 9.398438 -46.4375 10.109375 -45.90625 10.671875 -44.84375 C 11.671875 -42.851562 11.796875 -41.304688 11.046875 -40.203125 C 10.296875 -39.097656 9.390625 -38.546875 8.328125 -38.546875 C 7.617188 -38.546875 6.957031 -38.828125 6.34375 -39.390625 C 5.738281 -39.960938 5.4375 -40.816406 5.4375 -41.953125 Z M 5.4375 -41.953125 "/></g></g></g><g fill="#efe1ff" fill-opacity="1"><g transform="translate(867.449255, 162.749989)"><g><path d="M 3.3125 16.65625 C 3.3125 17.4375 3.363281 18.644531 3.46875 20.28125 C 3.570312 21.914062 3.785156 23.640625 4.109375 25.453125 C 4.429688 27.273438 4.894531 28.863281 5.5 30.21875 C 6.101562 31.570312 6.867188 32.351562 7.796875 32.5625 C 8.578125 32.0625 9.335938 31.046875 10.078125 29.515625 C 10.828125 27.984375 11.46875 26.328125 12 24.546875 C 12.539062 22.773438 12.8125 21.25 12.8125 19.96875 L 12.8125 15.90625 C 12.8125 14.269531 12.3125 12.648438 11.3125 11.046875 C 10.320312 9.441406 9.09375 8.070312 7.625 6.9375 C 6.164062 5.800781 4.726562 5.234375 3.3125 5.234375 Z M -13.765625 5.65625 C -13.765625 4.726562 -13.140625 3.960938 -11.890625 3.359375 C -10.648438 2.753906 -9.25 2.273438 -7.6875 1.921875 C -6.125 1.566406 -4.945312 1.351562 -4.15625 1.28125 C -3.019531 1.132812 -2.328125 1.039062 -2.078125 1 C -1.828125 0.96875 -1.664062 0.347656 -1.59375 -0.859375 C -1.53125 -2.566406 -1.265625 -4.71875 -0.796875 -7.3125 C -0.335938 -9.90625 0.242188 -12.679688 0.953125 -15.640625 C 1.671875 -18.597656 2.4375 -21.515625 3.25 -24.390625 C 4.070312 -27.273438 4.925781 -29.875 5.8125 -32.1875 C 6.707031 -34.5 7.582031 -36.226562 8.4375 -37.375 C 9.363281 -38.507812 10.320312 -39.078125 11.3125 -39.078125 C 11.8125 -39.078125 12.238281 -38.878906 12.59375 -38.484375 C 12.945312 -38.097656 13.125 -37.441406 13.125 -36.515625 C 13.125 -35.234375 13.050781 -34.46875 12.90625 -34.21875 C 12.769531 -33.96875 12.554688 -33.804688 12.265625 -33.734375 C 11.984375 -33.660156 11.628906 -33.320312 11.203125 -32.71875 C 10.773438 -32.113281 10.28125 -30.78125 9.71875 -28.71875 C 9 -26.226562 8.425781 -24.21875 8 -22.6875 C 7.570312 -21.15625 7.160156 -19.601562 6.765625 -18.03125 C 6.378906 -16.46875 5.90625 -14.300781 5.34375 -11.53125 C 5.125 -10.394531 4.890625 -8.898438 4.640625 -7.046875 C 4.390625 -5.191406 4.195312 -3.625 4.0625 -2.34375 C 4.488281 -2.488281 5.234375 -2.914062 6.296875 -3.625 C 7.367188 -4.34375 8.523438 -5.179688 9.765625 -6.140625 C 11.015625 -7.097656 12.207031 -8.019531 13.34375 -8.90625 C 14.476562 -9.800781 15.332031 -10.5 15.90625 -11 L 23.703125 -18.359375 C 24.203125 -18.710938 24.703125 -18.890625 25.203125 -18.890625 C 25.984375 -18.890625 26.375 -18.460938 26.375 -17.609375 C 26.375 -16.898438 25.859375 -15.992188 24.828125 -14.890625 C 23.796875 -13.785156 22.671875 -12.695312 21.453125 -11.625 C 20.242188 -10.5625 19.359375 -9.78125 18.796875 -9.28125 L 4.375 1.921875 C 8.5 2.847656 11.503906 4.785156 13.390625 7.734375 C 15.285156 10.691406 16.234375 14.109375 16.234375 17.984375 C 16.234375 21.867188 15.484375 25.769531 13.984375 29.6875 C 13.484375 31.175781 12.679688 32.722656 11.578125 34.328125 C 10.472656 35.929688 8.960938 36.734375 7.046875 36.734375 C 5.410156 36.734375 4.054688 35.945312 2.984375 34.375 C 1.921875 32.8125 1.050781 30.835938 0.375 28.453125 C -0.300781 26.066406 -0.816406 23.609375 -1.171875 21.078125 C -1.523438 18.554688 -1.789062 16.242188 -1.96875 14.140625 C -2.144531 12.046875 -2.269531 10.570312 -2.34375 9.71875 C -2.414062 9.070312 -2.378906 8.394531 -2.234375 7.6875 C -2.097656 6.976562 -2.03125 6.160156 -2.03125 5.234375 C -3.238281 5.515625 -4.609375 6.082031 -6.140625 6.9375 C -7.671875 7.789062 -9.46875 8.21875 -11.53125 8.21875 C -12.8125 8.21875 -13.503906 7.96875 -13.609375 7.46875 C -13.710938 6.96875 -13.765625 6.363281 -13.765625 5.65625 Z M -13.765625 5.65625 "/></g></g></g><g fill="#efe1ff" fill-opacity="1"><g transform="translate(888.589604, 162.749989)"><g><path d="M 4.90625 -19.328125 C 6.257812 -20.035156 7.753906 -21.007812 9.390625 -22.25 C 11.023438 -23.5 11.914062 -24.976562 12.0625 -26.6875 C 11.132812 -26.550781 10.15625 -26.054688 9.125 -25.203125 C 8.09375 -24.347656 7.203125 -23.382812 6.453125 -22.3125 C 5.710938 -21.25 5.195312 -20.253906 4.90625 -19.328125 Z M 0.109375 -16.765625 C 0.109375 -18.546875 0.691406 -20.46875 1.859375 -22.53125 C 3.035156 -24.59375 4.492188 -26.351562 6.234375 -27.8125 C 7.984375 -29.269531 9.710938 -30 11.421875 -30 C 13.773438 -30 15.003906 -29.109375 15.109375 -27.328125 C 15.210938 -25.546875 14.445312 -23.625 12.8125 -21.5625 C 11.957031 -20.632812 10.675781 -19.566406 8.96875 -18.359375 C 7.257812 -17.148438 5.585938 -16.472656 3.953125 -16.328125 C 3.953125 -15.191406 3.984375 -14.175781 4.046875 -13.28125 C 4.117188 -12.394531 4.617188 -11.488281 5.546875 -10.5625 C 6.472656 -9.644531 7.648438 -9.1875 9.078125 -9.1875 C 10.921875 -9.1875 12.835938 -9.769531 14.828125 -10.9375 C 16.828125 -12.113281 18.363281 -13.09375 19.4375 -13.875 C 19.863281 -14.226562 20.195312 -14.507812 20.4375 -14.71875 C 20.6875 -14.9375 20.992188 -15.191406 21.359375 -15.484375 C 22.847656 -16.617188 23.785156 -17.453125 24.171875 -17.984375 C 24.566406 -18.523438 24.90625 -18.882812 25.1875 -19.0625 C 25.476562 -19.238281 26.15625 -19.328125 27.21875 -19.328125 C 27.363281 -18.546875 27.414062 -18.007812 27.375 -17.71875 C 27.34375 -17.4375 27.078125 -17.007812 26.578125 -16.4375 C 25.296875 -15.15625 23.675781 -13.695312 21.71875 -12.0625 C 19.769531 -10.425781 17.671875 -9.003906 15.421875 -7.796875 C 13.179688 -6.585938 10.957031 -5.984375 8.75 -5.984375 C 7.613281 -5.984375 6.53125 -6.175781 5.5 -6.5625 C 4.46875 -6.957031 3.488281 -7.617188 2.5625 -8.546875 C 1.28125 -9.828125 0.550781 -11.140625 0.375 -12.484375 C 0.195312 -13.835938 0.109375 -15.265625 0.109375 -16.765625 Z M 0.109375 -16.765625 "/></g></g></g><path stroke-linecap="butt" transform="matrix(0.75, 0, 0, 0.75, 931.937473, 29.436619)" fill="none" stroke-linejoin="miter" d="M 21.828163 201.376188 C 18.411496 201.376188 15.651079 200.292854 13.541704 198.126187 C 11.45837 195.959521 10.416703 193.277229 10.416703 190.08452 C 10.416703 186.808478 11.45837 184.141811 13.541704 182.08452 C 15.651079 180.032436 18.411496 179.001186 21.828163 179.001186 C 25.359413 179.001186 28.177121 180.032436 30.286496 182.08452 C 32.395872 184.141811 33.453163 186.808478 33.453163 190.08452 C 33.453163 193.277229 32.395872 195.959521 30.286496 198.126187 C 28.177121 200.292854 25.359413 201.376188 21.828163 201.376188 Z M 21.828163 201.376188 " stroke="#afaa1c" stroke-width="4.052866" stroke-opacity="1" stroke-miterlimit="4"/><g fill="#4bfe5a" fill-opacity="1"><g transform="translate(931.937473, 179.436609)"><g><path d="M 16.375 1.03125 C 13.820312 1.03125 11.753906 0.21875 10.171875 -1.40625 C 8.597656 -3.03125 7.8125 -5.035156 7.8125 -7.421875 C 7.8125 -9.898438 8.597656 -11.90625 10.171875 -13.4375 C 11.753906 -14.96875 13.820312 -15.734375 16.375 -15.734375 C 19.019531 -15.734375 21.128906 -14.96875 22.703125 -13.4375 C 24.285156 -11.90625 25.078125 -9.898438 25.078125 -7.421875 C 25.078125 -5.035156 24.285156 -3.03125 22.703125 -1.40625 C 21.128906 0.21875 19.019531 1.03125 16.375 1.03125 Z M 16.375 1.03125 "/></g></g></g></svg>