<svg xmlns="http://www.w3.org/2000/svg" xmlns:xlink="http://www.w3.org/1999/xlink" width="1548" zoomAndPan="magnify" viewBox="0 0 1161 296.999993" height="396" preserveAspectRatio="xMidYMid meet" version="1.0"><defs><g/></defs><g fill="#efe1ff" fill-opacity="1"><g transform="translate(209.162334, 162.749989)"><g><path d="M 4.90625 28.5 C 6.476562 28.5 7.992188 27.820312 9.453125 26.46875 C 10.910156 25.125 12.222656 23.578125 13.390625 21.828125 C 14.566406 20.085938 15.441406 18.613281 16.015625 17.40625 C 18.078125 13.269531 19.425781 9.78125 20.0625 6.9375 C 20.707031 4.09375 21.28125 2.242188 21.78125 1.390625 C 21.351562 1.460938 20.710938 1.832031 19.859375 2.5 C 19.003906 3.175781 18.164062 3.867188 17.34375 4.578125 C 16.53125 5.296875 15.945312 5.867188 15.59375 6.296875 C 14.375 7.503906 12.984375 8.960938 11.421875 10.671875 C 9.859375 12.378906 8.363281 14.226562 6.9375 16.21875 C 5.507812 18.21875 4.421875 20.226562 3.671875 22.25 C 2.929688 24.28125 2.773438 26.257812 3.203125 28.1875 C 3.628906 28.257812 3.910156 28.328125 4.046875 28.390625 C 4.191406 28.460938 4.476562 28.5 4.90625 28.5 Z M 57.015625 -22.84375 C 57.296875 -23.84375 57.503906 -24.945312 57.640625 -26.15625 C 57.785156 -27.363281 57.929688 -28.503906 58.078125 -29.578125 C 58.503906 -32.640625 59.054688 -36.125 59.734375 -40.03125 C 60.410156 -43.945312 61.140625 -47.863281 61.921875 -51.78125 C 62.703125 -55.695312 63.414062 -59.1875 64.0625 -62.25 C 64.269531 -63.238281 64.515625 -64.535156 64.796875 -66.140625 C 65.085938 -67.742188 65.335938 -69.46875 65.546875 -71.3125 C 65.765625 -73.164062 65.835938 -74.894531 65.765625 -76.5 C 65.691406 -78.101562 65.375 -79.363281 64.8125 -80.28125 C 63.3125 -80.21875 61.707031 -79.472656 60 -78.046875 C 58.289062 -76.617188 56.5625 -74.816406 54.8125 -72.640625 C 53.070312 -70.472656 51.4375 -68.195312 49.90625 -65.8125 C 48.382812 -63.4375 47.015625 -61.210938 45.796875 -59.140625 C 44.585938 -57.078125 43.703125 -55.441406 43.140625 -54.234375 L 38.75 -44.84375 C 37.757812 -42.632812 36.726562 -40.015625 35.65625 -36.984375 C 34.59375 -33.960938 33.597656 -30.921875 32.671875 -27.859375 C 31.742188 -24.804688 30.960938 -22.066406 30.328125 -19.640625 C 30.179688 -18.859375 29.910156 -17.738281 29.515625 -16.28125 C 29.128906 -14.820312 28.753906 -13.378906 28.390625 -11.953125 C 28.035156 -10.535156 27.828125 -9.46875 27.765625 -8.75 C 28.398438 -8.96875 29.019531 -9.289062 29.625 -9.71875 C 30.226562 -10.144531 30.816406 -10.535156 31.390625 -10.890625 L 41.859375 -16.65625 C 43.492188 -17.4375 45.304688 -18.289062 47.296875 -19.21875 C 49.285156 -20.144531 51.171875 -20.925781 52.953125 -21.5625 C 53.660156 -21.707031 54.390625 -21.882812 55.140625 -22.09375 C 55.890625 -22.3125 56.515625 -22.5625 57.015625 -22.84375 Z M 4.265625 32.140625 C 2.628906 32.140625 1.332031 31.515625 0.375 30.265625 C -0.582031 29.023438 -1.0625 27.550781 -1.0625 25.84375 C -0.988281 23.488281 -0.28125 21.007812 1.0625 18.40625 C 2.414062 15.8125 4.109375 13.269531 6.140625 10.78125 C 8.171875 8.289062 10.269531 5.976562 12.4375 3.84375 C 14.601562 1.707031 16.539062 -0.0703125 18.25 -1.5 C 19.75 -2.707031 20.851562 -3.554688 21.5625 -4.046875 C 22.28125 -4.546875 22.78125 -5.023438 23.0625 -5.484375 C 23.34375 -5.953125 23.59375 -6.6875 23.8125 -7.6875 C 25.019531 -13.164062 26.457031 -18.875 28.125 -24.8125 C 29.800781 -30.757812 31.757812 -36.648438 34 -42.484375 C 36.25 -48.328125 38.8125 -53.914062 41.6875 -59.25 C 44.570312 -64.59375 47.757812 -69.398438 51.25 -73.671875 C 52.03125 -74.660156 53.148438 -75.957031 54.609375 -77.5625 C 56.066406 -79.164062 57.664062 -80.585938 59.40625 -81.828125 C 61.15625 -83.078125 62.847656 -83.703125 64.484375 -83.703125 C 66.335938 -83.703125 67.582031 -83.097656 68.21875 -81.890625 C 68.863281 -80.679688 69.21875 -79.289062 69.28125 -77.71875 C 69.351562 -76.15625 69.390625 -74.804688 69.390625 -73.671875 C 69.390625 -72.316406 69.191406 -70.269531 68.796875 -67.53125 C 68.410156 -64.789062 67.929688 -61.710938 67.359375 -58.296875 C 66.796875 -54.878906 66.175781 -51.390625 65.5 -47.828125 C 64.820312 -44.273438 64.21875 -40.984375 63.6875 -37.953125 C 63.15625 -34.929688 62.742188 -32.457031 62.453125 -30.53125 C 62.316406 -29.394531 62.15625 -28.363281 61.96875 -27.4375 C 61.789062 -26.507812 61.703125 -25.441406 61.703125 -24.234375 C 62.921875 -24.234375 64.007812 -24.335938 64.96875 -24.546875 C 65.925781 -24.765625 67.082031 -24.875 68.4375 -24.875 C 69.789062 -24.875 70.679688 -24.550781 71.109375 -23.90625 C 71.535156 -23.269531 71.601562 -22.613281 71.3125 -21.9375 C 71.03125 -21.257812 70.5 -20.921875 69.71875 -20.921875 C 68.789062 -20.921875 68.414062 -21.007812 68.59375 -21.1875 C 68.769531 -21.363281 68.578125 -21.453125 68.015625 -21.453125 C 67.722656 -21.453125 67.1875 -21.414062 66.40625 -21.34375 C 65.625 -21.28125 64.519531 -21.101562 63.09375 -20.8125 C 62.101562 -20.601562 61.5 -20.390625 61.28125 -20.171875 C 61.070312 -19.960938 60.894531 -19.289062 60.75 -18.15625 L 55.625 37.265625 C 55.625 38.828125 55.566406 40.375 55.453125 41.90625 C 55.347656 43.4375 55.296875 45.128906 55.296875 46.984375 C 55.296875 49.117188 55.367188 50.84375 55.515625 52.15625 C 55.660156 53.46875 55.644531 54.441406 55.46875 55.078125 C 55.289062 55.722656 54.664062 56.046875 53.59375 56.046875 C 52.8125 56.046875 52.222656 55.40625 51.828125 54.125 C 51.441406 52.84375 51.175781 51.296875 51.03125 49.484375 C 50.894531 47.671875 50.84375 45.925781 50.875 44.25 C 50.90625 42.582031 50.957031 41.359375 51.03125 40.578125 C 51.03125 39.722656 51.082031 39.082031 51.1875 38.65625 C 51.300781 38.226562 51.359375 37.550781 51.359375 36.625 C 51.359375 35.34375 51.425781 33.722656 51.5625 31.765625 C 51.707031 29.804688 51.847656 27.773438 51.984375 25.671875 C 52.128906 23.578125 52.238281 21.710938 52.3125 20.078125 L 55.625 -11.109375 C 55.769531 -12.523438 55.929688 -13.800781 56.109375 -14.9375 C 56.285156 -16.082031 56.375 -17.398438 56.375 -18.890625 C 55.375 -18.398438 54.054688 -17.882812 52.421875 -17.34375 C 50.785156 -16.8125 49.003906 -16.046875 47.078125 -15.046875 C 44.941406 -13.984375 43.21875 -13.128906 41.90625 -12.484375 C 40.59375 -11.847656 39.4375 -11.242188 38.4375 -10.671875 C 37.4375 -10.109375 36.347656 -9.453125 35.171875 -8.703125 C 34.003906 -7.953125 32.457031 -6.972656 30.53125 -5.765625 C 30.394531 -5.691406 30.019531 -5.457031 29.40625 -5.0625 C 28.800781 -4.675781 28.234375 -4.269531 27.703125 -3.84375 C 27.171875 -3.414062 26.867188 -3.164062 26.796875 -3.09375 C 26.585938 -2.882812 26.25 -1.890625 25.78125 -0.109375 C 25.320312 1.671875 24.695312 3.894531 23.90625 6.5625 C 23.125 9.226562 22.164062 12.039062 21.03125 15 C 19.894531 17.957031 18.523438 20.734375 16.921875 23.328125 C 15.316406 25.921875 13.460938 28.035156 11.359375 29.671875 C 9.265625 31.316406 6.898438 32.140625 4.265625 32.140625 Z M 4.265625 32.140625 "/></g></g></g><g fill="#efe1ff" fill-opacity="1"><g transform="translate(275.359385, 162.749989)"><g><path d="M 4.90625 13.125 C 7.039062 13.125 8.976562 12.359375 10.71875 10.828125 C 12.46875 9.304688 13.984375 7.507812 15.265625 5.4375 C 16.546875 3.375 17.613281 1.5625 18.46875 0 C 18.039062 0.144531 17.1875 0.535156 15.90625 1.171875 C 14.625 1.816406 13.34375 2.492188 12.0625 3.203125 C 10.78125 3.910156 9.890625 4.441406 9.390625 4.796875 C 8.460938 5.367188 7.460938 6.117188 6.390625 7.046875 C 5.328125 7.972656 4.421875 8.894531 3.671875 9.8125 C 2.929688 10.738281 2.613281 11.519531 2.71875 12.15625 C 2.820312 12.800781 3.550781 13.125 4.90625 13.125 Z M 1.5 -6.71875 C 1.5 -9.425781 1.601562 -12.753906 1.8125 -16.703125 C 2.03125 -20.660156 2.351562 -24.828125 2.78125 -29.203125 C 3.207031 -33.578125 3.773438 -37.722656 4.484375 -41.640625 C 5.191406 -45.554688 6.046875 -48.757812 7.046875 -51.25 C 7.617188 -52.664062 8.148438 -53.640625 8.640625 -54.171875 C 9.140625 -54.710938 9.601562 -54.984375 10.03125 -54.984375 C 10.53125 -54.984375 10.921875 -54.734375 11.203125 -54.234375 C 11.492188 -53.734375 11.601562 -53.304688 11.53125 -52.953125 C 11.53125 -52.804688 11.441406 -52.429688 11.265625 -51.828125 C 11.085938 -51.222656 10.960938 -50.675781 10.890625 -50.1875 C 10.316406 -47.976562 9.707031 -45.078125 9.0625 -41.484375 C 8.425781 -37.890625 7.84375 -34.0625 7.3125 -30 C 6.78125 -25.945312 6.351562 -22.101562 6.03125 -18.46875 C 5.707031 -14.84375 5.546875 -11.960938 5.546875 -9.828125 L 7.90625 -13.671875 C 8.257812 -14.378906 8.628906 -15.035156 9.015625 -15.640625 C 9.410156 -16.242188 9.859375 -16.796875 10.359375 -17.296875 C 11.492188 -18.859375 12.769531 -20.082031 14.1875 -20.96875 C 15.613281 -21.863281 17.003906 -22.3125 18.359375 -22.3125 C 20.640625 -22.3125 22.457031 -21.101562 23.8125 -18.6875 C 25.019531 -16.332031 25.515625 -14.226562 25.296875 -12.375 C 25.085938 -10.53125 24.984375 -8.789062 24.984375 -7.15625 C 26.335938 -7.863281 27.421875 -8.429688 28.234375 -8.859375 C 29.054688 -9.285156 29.859375 -9.75 30.640625 -10.25 C 31.421875 -10.75 32.453125 -11.460938 33.734375 -12.390625 C 34.378906 -12.878906 35.253906 -13.585938 36.359375 -14.515625 C 37.460938 -15.441406 38.507812 -16.3125 39.5 -17.125 C 40.5 -17.945312 41.101562 -18.359375 41.3125 -18.359375 C 42.382812 -18.359375 42.972656 -18.125 43.078125 -17.65625 C 43.179688 -17.195312 43.003906 -16.664062 42.546875 -16.0625 C 42.085938 -15.457031 41.609375 -14.921875 41.109375 -14.453125 C 40.609375 -13.992188 40.285156 -13.734375 40.140625 -13.671875 C 39.359375 -12.816406 38.539062 -12.066406 37.6875 -11.421875 C 36.832031 -10.785156 35.976562 -10.070312 35.125 -9.28125 C 33.988281 -8.5 32.546875 -7.59375 30.796875 -6.5625 C 29.054688 -5.53125 27.488281 -4.601562 26.09375 -3.78125 C 24.707031 -2.96875 23.910156 -2.421875 23.703125 -2.140625 C 23.484375 -1.773438 23.144531 -0.972656 22.6875 0.265625 C 22.226562 1.515625 21.570312 2.972656 20.71875 4.640625 C 19.863281 6.316406 18.757812 7.988281 17.40625 9.65625 C 16.050781 11.332031 14.378906 12.773438 12.390625 13.984375 C 9.890625 15.546875 7.359375 16.328125 4.796875 16.328125 C 3.304688 16.328125 2.023438 15.953125 0.953125 15.203125 C -0.109375 14.460938 -0.640625 13.273438 -0.640625 11.640625 C -0.640625 10.066406 0.0664062 8.515625 1.484375 6.984375 C 2.910156 5.460938 4.65625 4.003906 6.71875 2.609375 C 8.789062 1.222656 10.859375 0 12.921875 -1.0625 C 14.984375 -2.132812 16.65625 -2.988281 17.9375 -3.625 C 18.9375 -4.125 19.554688 -4.441406 19.796875 -4.578125 C 20.046875 -4.722656 20.316406 -5.40625 20.609375 -6.625 C 21.109375 -8.6875 21.320312 -10.640625 21.25 -12.484375 C 21.175781 -14.335938 20.867188 -15.851562 20.328125 -17.03125 C 19.796875 -18.207031 19 -18.796875 17.9375 -18.796875 C 16.582031 -18.796875 14.875 -17.617188 12.8125 -15.265625 C 11.03125 -13.128906 9.601562 -10.816406 8.53125 -8.328125 C 7.46875 -5.835938 6.597656 -3.703125 5.921875 -1.921875 C 5.242188 -0.140625 4.550781 0.75 3.84375 0.75 C 2.914062 0.75 2.289062 0.34375 1.96875 -0.46875 C 1.65625 -1.289062 1.5 -2.289062 1.5 -3.46875 C 1.5 -4.644531 1.5 -5.726562 1.5 -6.71875 Z M 1.5 -6.71875 "/></g></g></g><g fill="#efe1ff" fill-opacity="1"><g transform="translate(313.262535, 162.749989)"><g><path d="M 5.34375 -2.453125 C 6.40625 -2.734375 7.363281 -3.675781 8.21875 -5.28125 C 9.070312 -6.882812 9.675781 -8.71875 10.03125 -10.78125 C 10.382812 -12.84375 10.472656 -14.742188 10.296875 -16.484375 C 10.117188 -18.234375 9.566406 -19.429688 8.640625 -20.078125 C 8.429688 -19.285156 8.039062 -18.160156 7.46875 -16.703125 C 6.90625 -15.242188 6.351562 -13.640625 5.8125 -11.890625 C 5.28125 -10.148438 4.925781 -8.441406 4.75 -6.765625 C 4.570312 -5.097656 4.769531 -3.660156 5.34375 -2.453125 Z M 0 -6.078125 C 0 -7.003906 0.191406 -8.375 0.578125 -10.1875 C 0.972656 -12.007812 1.523438 -13.96875 2.234375 -16.0625 C 2.953125 -18.164062 3.753906 -20.160156 4.640625 -22.046875 C 5.535156 -23.929688 6.5 -25.476562 7.53125 -26.6875 C 8.5625 -27.894531 9.609375 -28.5 10.671875 -28.5 C 11.390625 -28.5 11.890625 -28.175781 12.171875 -27.53125 C 12.453125 -26.894531 12.523438 -26.363281 12.390625 -25.9375 C 12.242188 -25.582031 11.972656 -25.226562 11.578125 -24.875 C 11.191406 -24.519531 10.851562 -24.128906 10.5625 -23.703125 C 10.707031 -23.203125 11.0625 -22.648438 11.625 -22.046875 C 12.195312 -21.441406 12.769531 -20.640625 13.34375 -19.640625 C 13.914062 -18.648438 14.289062 -17.300781 14.46875 -15.59375 C 14.644531 -13.882812 14.445312 -11.640625 13.875 -8.859375 C 13.09375 -5.160156 11.847656 -2.382812 10.140625 -0.53125 C 8.429688 1.3125 6.757812 2.234375 5.125 2.234375 C 3.769531 2.234375 2.578125 1.539062 1.546875 0.15625 C 0.515625 -1.226562 0 -3.304688 0 -6.078125 Z M 0 -6.078125 "/></g></g></g><g fill="#efe1ff" fill-opacity="1"><g transform="translate(332.053962, 162.749989)"><g><path d="M 0.109375 -13.03125 C 0.109375 -14.59375 0.335938 -16.332031 0.796875 -18.25 C 1.265625 -20.175781 1.867188 -22.046875 2.609375 -23.859375 C 3.359375 -25.671875 4.160156 -27.148438 5.015625 -28.296875 C 5.796875 -29.148438 6.578125 -29.578125 7.359375 -29.578125 C 8.003906 -29.578125 8.644531 -29.398438 9.28125 -29.046875 C 9.351562 -28.679688 9.441406 -28.425781 9.546875 -28.28125 C 9.660156 -28.144531 9.71875 -27.828125 9.71875 -27.328125 C 9.71875 -27.253906 9.394531 -26.578125 8.75 -25.296875 C 8.113281 -24.015625 7.421875 -22.410156 6.671875 -20.484375 C 5.921875 -18.566406 5.3125 -16.539062 4.84375 -14.40625 C 4.382812 -12.269531 4.367188 -10.316406 4.796875 -8.546875 C 5.648438 -8.828125 6.394531 -9.375 7.03125 -10.1875 C 7.675781 -11.007812 8.25 -11.773438 8.75 -12.484375 L 15.15625 -21.890625 C 15.875 -22.878906 16.476562 -23.75 16.96875 -24.5 C 17.46875 -25.25 18.21875 -25.625 19.21875 -25.625 C 20.21875 -25.625 20.804688 -25 20.984375 -23.75 C 21.160156 -22.507812 21.191406 -21.101562 21.078125 -19.53125 C 20.972656 -17.96875 20.957031 -16.722656 21.03125 -15.796875 C 21.382812 -13.234375 21.9375 -11.4375 22.6875 -10.40625 C 23.4375 -9.375 24.304688 -8.859375 25.296875 -8.859375 C 26.515625 -8.859375 27.796875 -9.351562 29.140625 -10.34375 C 30.492188 -11.34375 31.847656 -12.5 33.203125 -13.8125 C 34.554688 -15.132812 35.75 -16.296875 36.78125 -17.296875 C 37.8125 -18.296875 38.578125 -18.796875 39.078125 -18.796875 C 39.503906 -18.796875 39.894531 -18.703125 40.25 -18.515625 C 40.601562 -18.335938 40.78125 -17.96875 40.78125 -17.40625 C 40.78125 -16.832031 40.351562 -16.066406 39.5 -15.109375 C 38.644531 -14.148438 37.71875 -13.222656 36.71875 -12.328125 C 35.726562 -11.441406 35.019531 -10.785156 34.59375 -10.359375 C 33.164062 -9.003906 31.613281 -7.84375 29.9375 -6.875 C 28.269531 -5.914062 26.617188 -5.4375 24.984375 -5.4375 C 23.203125 -5.4375 21.8125 -5.914062 20.8125 -6.875 C 19.820312 -7.84375 19.09375 -9.054688 18.625 -10.515625 C 18.164062 -11.972656 17.863281 -13.503906 17.71875 -15.109375 C 17.582031 -16.710938 17.515625 -18.15625 17.515625 -19.4375 C 17.085938 -19.144531 16.566406 -18.519531 15.953125 -17.5625 C 15.347656 -16.601562 14.867188 -15.835938 14.515625 -15.265625 C 14.085938 -14.554688 13.484375 -13.578125 12.703125 -12.328125 C 11.921875 -11.085938 11.046875 -9.84375 10.078125 -8.59375 C 9.117188 -7.34375 8.160156 -6.289062 7.203125 -5.4375 C 6.242188 -4.582031 5.335938 -4.15625 4.484375 -4.15625 C 2.847656 -4.15625 1.726562 -4.632812 1.125 -5.59375 C 0.519531 -6.5625 0.195312 -7.738281 0.15625 -9.125 C 0.125 -10.507812 0.109375 -11.8125 0.109375 -13.03125 Z M 0.109375 -13.03125 "/></g></g></g><g fill="#efe1ff" fill-opacity="1"><g transform="translate(368.142034, 162.749989)"><g><path d="M -30 -47.625 C -30 -48.539062 -29.144531 -49.515625 -27.4375 -50.546875 C -25.726562 -51.585938 -23.570312 -52.601562 -20.96875 -53.59375 C -18.375 -54.59375 -15.632812 -55.535156 -12.75 -56.421875 C -9.875 -57.316406 -7.222656 -58.082031 -4.796875 -58.71875 C -2.378906 -59.363281 -0.566406 -59.863281 0.640625 -60.21875 C 2.128906 -60.644531 3.175781 -60.890625 3.78125 -60.953125 C 4.394531 -61.023438 4.789062 -61.257812 4.96875 -61.65625 C 5.144531 -62.050781 5.335938 -62.851562 5.546875 -64.0625 C 6.117188 -66.976562 6.773438 -68.988281 7.515625 -70.09375 C 8.265625 -71.195312 9 -71.75 9.71875 -71.75 C 10.28125 -71.75 10.757812 -71.445312 11.15625 -70.84375 C 11.550781 -70.238281 11.75 -69.507812 11.75 -68.65625 C 11.75 -68.007812 11.710938 -67.738281 11.640625 -67.84375 C 11.566406 -67.957031 11.566406 -67.726562 11.640625 -67.15625 C 11.640625 -67.007812 11.65625 -66.828125 11.6875 -66.609375 C 11.726562 -66.398438 11.75 -66.117188 11.75 -65.765625 C 11.75 -64.835938 11.566406 -64.375 11.203125 -64.375 C 10.847656 -64.375 10.492188 -64.320312 10.140625 -64.21875 C 9.785156 -64.113281 9.609375 -63.488281 9.609375 -62.34375 C 10.460938 -62.34375 11.40625 -62.46875 12.4375 -62.71875 C 13.46875 -62.96875 14.375 -63.128906 15.15625 -63.203125 C 18.289062 -63.773438 21.421875 -64.289062 24.546875 -64.75 C 27.679688 -65.21875 30.890625 -65.453125 34.171875 -65.453125 C 35.878906 -65.453125 37.125 -65.09375 37.90625 -64.375 C 38.6875 -63.664062 38.96875 -62.953125 38.75 -62.234375 C 38.539062 -61.523438 37.757812 -61.171875 36.40625 -61.171875 C 36.257812 -61.742188 36.171875 -62.007812 36.140625 -61.96875 C 36.109375 -61.9375 35.769531 -61.992188 35.125 -62.140625 C 34.84375 -62.210938 34.273438 -62.25 33.421875 -62.25 C 31.921875 -62.25 29.941406 -62.085938 27.484375 -61.765625 C 25.035156 -61.441406 22.492188 -61.066406 19.859375 -60.640625 C 17.222656 -60.210938 14.875 -59.800781 12.8125 -59.40625 C 10.75 -59.019531 9.394531 -58.753906 8.75 -58.609375 L 6.625 -36.734375 C 6.550781 -36.234375 6.53125 -35.695312 6.5625 -35.125 C 6.601562 -34.550781 6.625 -33.984375 6.625 -33.421875 C 6.625 -32.703125 6.566406 -32.234375 6.453125 -32.015625 C 6.347656 -31.804688 6.296875 -31.3125 6.296875 -30.53125 C 6.296875 -28.96875 6.332031 -27.171875 6.40625 -25.140625 C 6.476562 -23.109375 6.441406 -21.523438 6.296875 -20.390625 C 6.222656 -19.753906 6.164062 -18.488281 6.125 -16.59375 C 6.09375 -14.707031 6.0625 -12.519531 6.03125 -10.03125 C 6 -7.539062 5.984375 -5.03125 5.984375 -2.5 C 5.984375 0.0195312 5.984375 2.3125 5.984375 4.375 C 5.984375 6.4375 6.015625 7.929688 6.078125 8.859375 C 6.078125 9.640625 6.164062 10.832031 6.34375 12.4375 C 6.53125 14.039062 6.566406 15.484375 6.453125 16.765625 C 6.347656 18.046875 5.832031 18.6875 4.90625 18.6875 C 3.550781 18.6875 2.734375 17.9375 2.453125 16.4375 C 2.171875 14.945312 2.03125 13.5625 2.03125 12.28125 C 1.8125 9.71875 1.679688 6.726562 1.640625 3.3125 C 1.609375 -0.101562 1.609375 -3.519531 1.640625 -6.9375 C 1.679688 -10.351562 1.703125 -13.34375 1.703125 -15.90625 L 2.03125 -20.921875 C 2.03125 -21.921875 2.03125 -23.453125 2.03125 -25.515625 C 2.03125 -27.578125 2.0625 -29.765625 2.125 -32.078125 C 2.195312 -34.390625 2.269531 -36.503906 2.34375 -38.421875 C 2.414062 -40.347656 2.523438 -41.707031 2.671875 -42.5 C 2.804688 -43.207031 2.890625 -44.054688 2.921875 -45.046875 C 2.960938 -46.046875 3.019531 -46.90625 3.09375 -47.625 L 4.0625 -57.546875 C 3.769531 -57.472656 3.144531 -57.328125 2.1875 -57.109375 C 1.226562 -56.898438 0.460938 -56.722656 -0.109375 -56.578125 C -3.597656 -55.722656 -6.925781 -54.816406 -10.09375 -53.859375 C -13.257812 -52.898438 -16.515625 -51.78125 -19.859375 -50.5 C -20.492188 -50.21875 -21.078125 -49.914062 -21.609375 -49.59375 C -22.148438 -49.269531 -22.738281 -48.96875 -23.375 -48.6875 C -24.226562 -48.332031 -24.78125 -48.082031 -25.03125 -47.9375 C -25.28125 -47.789062 -25.40625 -47.609375 -25.40625 -47.390625 C -25.40625 -47.179688 -25.582031 -46.722656 -25.9375 -46.015625 C -26.226562 -45.941406 -26.515625 -45.882812 -26.796875 -45.84375 C -27.078125 -45.8125 -27.398438 -45.796875 -27.765625 -45.796875 C -28.328125 -45.796875 -28.835938 -45.921875 -29.296875 -46.171875 C -29.765625 -46.421875 -30 -46.90625 -30 -47.625 Z M -30 -47.625 "/></g></g></g><g fill="#efe1ff" fill-opacity="1"><g transform="translate(380.527287, 162.749989)"><g/></g></g><g fill="#efe1ff" fill-opacity="1"><g transform="translate(408.180571, 162.749989)"><g><path d="M 20.5 31.390625 C 20.5 30.960938 20.515625 30.285156 20.546875 29.359375 C 20.585938 28.429688 20.660156 27.503906 20.765625 26.578125 C 20.867188 25.660156 20.957031 25.09375 21.03125 24.875 C 20.53125 24.945312 20.242188 25.070312 20.171875 25.25 C 20.109375 25.425781 19.929688 25.765625 19.640625 26.265625 C 19.210938 27.191406 19.050781 28.132812 19.15625 29.09375 C 19.269531 30.050781 19.71875 30.816406 20.5 31.390625 Z M 29.046875 -67.796875 C 29.046875 -69.859375 29.203125 -71.832031 29.515625 -73.71875 C 29.835938 -75.601562 30 -77.546875 30 -79.546875 C 30 -80.328125 30.066406 -81.285156 30.203125 -82.421875 C 30.347656 -83.554688 30.457031 -84.585938 30.53125 -85.515625 C 30.675781 -86.515625 30.726562 -87.242188 30.6875 -87.703125 C 30.65625 -88.171875 30.742188 -88.53125 30.953125 -88.78125 C 31.171875 -89.03125 31.632812 -89.367188 32.34375 -89.796875 C 32.914062 -89.503906 33.394531 -89.179688 33.78125 -88.828125 C 34.175781 -88.472656 34.375 -87.832031 34.375 -86.90625 C 34.375 -83.488281 34.285156 -80.566406 34.109375 -78.140625 C 33.929688 -75.722656 33.703125 -72.953125 33.421875 -69.828125 C 33.984375 -69.960938 34.707031 -70.226562 35.59375 -70.625 C 36.488281 -71.019531 37.257812 -71.320312 37.90625 -71.53125 C 42.675781 -73.457031 47.816406 -75.34375 53.328125 -77.1875 C 58.847656 -79.039062 64.171875 -80.429688 69.296875 -81.359375 C 70.429688 -81.640625 72.472656 -82.03125 75.421875 -82.53125 C 78.378906 -83.03125 81.691406 -83.472656 85.359375 -83.859375 C 89.023438 -84.253906 92.53125 -84.453125 95.875 -84.453125 C 99.4375 -84.453125 102.441406 -84.128906 104.890625 -83.484375 C 107.347656 -82.847656 108.578125 -81.640625 108.578125 -79.859375 C 108.578125 -77.867188 107.847656 -76.359375 106.390625 -75.328125 C 104.929688 -74.296875 103.488281 -73.707031 102.0625 -73.5625 C 102.425781 -74.5625 103 -75.578125 103.78125 -76.609375 C 104.5625 -77.640625 105.019531 -78.617188 105.15625 -79.546875 C 104.238281 -79.679688 103.40625 -79.851562 102.65625 -80.0625 C 101.90625 -80.28125 100.925781 -80.390625 99.71875 -80.390625 C 96.09375 -80.390625 92.941406 -80.351562 90.265625 -80.28125 C 87.597656 -80.21875 85.070312 -80.039062 82.6875 -79.75 C 80.300781 -79.46875 77.789062 -79.078125 75.15625 -78.578125 C 72.53125 -78.078125 69.4375 -77.398438 65.875 -76.546875 C 65.375 -76.410156 64.269531 -76.070312 62.5625 -75.53125 C 60.851562 -75 58.785156 -74.359375 56.359375 -73.609375 C 53.941406 -72.867188 51.4375 -72.050781 48.84375 -71.15625 C 46.25 -70.269531 43.796875 -69.398438 41.484375 -68.546875 C 39.171875 -67.691406 37.25 -66.925781 35.71875 -66.25 C 34.1875 -65.570312 33.3125 -65.019531 33.09375 -64.59375 L 29.6875 -31.0625 C 29.613281 -30.144531 29.488281 -29.078125 29.3125 -27.859375 C 29.132812 -26.648438 29.046875 -25.515625 29.046875 -24.453125 C 29.828125 -24.585938 31.050781 -24.992188 32.71875 -25.671875 C 34.394531 -26.347656 35.765625 -26.832031 36.828125 -27.125 C 38.109375 -27.550781 39.78125 -28.046875 41.84375 -28.609375 C 43.914062 -29.179688 46 -29.71875 48.09375 -30.21875 C 50.195312 -30.71875 51.890625 -31.035156 53.171875 -31.171875 C 54.660156 -31.390625 55.90625 -31.5 56.90625 -31.5 C 58.757812 -31.5 59.863281 -31.140625 60.21875 -30.421875 C 60.570312 -29.710938 60.570312 -28.644531 60.21875 -27.21875 C 59.863281 -27.15625 59.613281 -27.101562 59.46875 -27.0625 C 59.320312 -27.03125 59 -26.976562 58.5 -26.90625 C 58.363281 -27.832031 57.9375 -28.296875 57.21875 -28.296875 C 55.875 -28.296875 54.097656 -28.0625 51.890625 -27.59375 C 49.679688 -27.132812 47.332031 -26.566406 44.84375 -25.890625 C 42.351562 -25.210938 39.96875 -24.5 37.6875 -23.75 C 35.40625 -23.007812 33.554688 -22.351562 32.140625 -21.78125 C 31.640625 -21.5625 31.101562 -21.34375 30.53125 -21.125 C 29.96875 -20.914062 29.363281 -20.78125 28.71875 -20.71875 L 25.296875 16.65625 C 26.148438 16.582031 27.109375 16.222656 28.171875 15.578125 C 29.242188 14.941406 30.175781 14.484375 30.96875 14.203125 C 33.882812 12.921875 36.925781 11.832031 40.09375 10.9375 C 43.257812 10.050781 46.441406 9.359375 49.640625 8.859375 C 50.285156 8.710938 51.566406 8.515625 53.484375 8.265625 C 55.410156 8.023438 57.742188 7.757812 60.484375 7.46875 C 63.222656 7.1875 66.125 6.957031 69.1875 6.78125 C 72.25 6.601562 75.238281 6.515625 78.15625 6.515625 C 82.28125 6.515625 85.816406 6.796875 88.765625 7.359375 C 91.722656 7.929688 93.203125 9 93.203125 10.5625 C 93.203125 11.28125 93.179688 11.726562 93.140625 11.90625 C 93.109375 12.082031 93.003906 12.207031 92.828125 12.28125 C 92.648438 12.351562 92.382812 12.632812 92.03125 13.125 C 91.675781 12.84375 91.410156 12.539062 91.234375 12.21875 C 91.054688 11.90625 90.695312 11.585938 90.15625 11.265625 C 89.625 10.941406 88.578125 10.675781 87.015625 10.46875 C 84.660156 10.039062 81.457031 9.828125 77.40625 9.828125 C 72.632812 9.828125 67.597656 10.039062 62.296875 10.46875 C 56.992188 10.894531 51.796875 11.640625 46.703125 12.703125 C 41.617188 13.773438 36.867188 15.269531 32.453125 17.1875 C 31.742188 17.46875 31.15625 17.710938 30.6875 17.921875 C 30.226562 18.140625 29.679688 18.429688 29.046875 18.796875 C 28.472656 19.078125 27.898438 19.34375 27.328125 19.59375 C 26.765625 19.84375 26.300781 20.070312 25.9375 20.28125 C 25.375 20.632812 24.984375 21.34375 24.765625 22.40625 C 24.554688 23.476562 24.429688 24.617188 24.390625 25.828125 C 24.359375 27.046875 24.304688 28.148438 24.234375 29.140625 C 24.023438 31.566406 23.613281 33.238281 23 34.15625 C 22.394531 35.082031 21.703125 35.546875 20.921875 35.546875 C 20.210938 35.546875 19.46875 35.191406 18.6875 34.484375 C 17.90625 33.773438 17.265625 32.957031 16.765625 32.03125 C 16.265625 31.101562 16.015625 30.320312 16.015625 29.6875 C 16.015625 27.613281 16.242188 26.023438 16.703125 24.921875 C 17.171875 23.828125 17.707031 22.992188 18.3125 22.421875 C 18.914062 21.847656 19.5 21.347656 20.0625 20.921875 C 20.632812 20.492188 21.03125 19.960938 21.25 19.328125 C 21.320312 19.035156 21.410156 18.300781 21.515625 17.125 C 21.617188 15.957031 21.722656 14.644531 21.828125 13.1875 C 21.941406 11.726562 22.03125 10.375 22.09375 9.125 C 22.164062 7.882812 22.203125 7.050781 22.203125 6.625 C 22.203125 5.769531 22.238281 5.234375 22.3125 5.015625 C 22.382812 4.804688 22.457031 4.34375 22.53125 3.625 C 22.53125 3.0625 22.507812 2.507812 22.46875 1.96875 C 22.4375 1.4375 22.457031 0.882812 22.53125 0.3125 L 23.921875 -18.6875 L 14.953125 -14.09375 C 14.878906 -14.09375 14.429688 -13.820312 13.609375 -13.28125 C 12.796875 -12.75 12.03125 -12.484375 11.3125 -12.484375 C 10.601562 -12.484375 10.25 -12.945312 10.25 -13.875 C 10.25 -14.445312 10.691406 -15.085938 11.578125 -15.796875 C 12.472656 -16.515625 13.4375 -17.175781 14.46875 -17.78125 C 15.5 -18.382812 16.226562 -18.789062 16.65625 -19 L 24.5625 -22.734375 C 24.5625 -24.585938 24.628906 -26.332031 24.765625 -27.96875 C 24.910156 -29.601562 25.085938 -31.3125 25.296875 -33.09375 L 28.296875 -62.984375 C 27.578125 -62.628906 26.863281 -62.273438 26.15625 -61.921875 C 25.445312 -61.566406 24.703125 -61.25 23.921875 -60.96875 L 11.203125 -54.34375 C 9.859375 -53.5625 8.507812 -52.757812 7.15625 -51.9375 C 5.800781 -51.125 4.445312 -50.253906 3.09375 -49.328125 C 2.738281 -49.109375 2.398438 -48.890625 2.078125 -48.671875 C 1.753906 -48.460938 1.378906 -48.21875 0.953125 -47.9375 C 0.597656 -47.65625 0.332031 -47.441406 0.15625 -47.296875 C -0.0195312 -47.148438 -0.320312 -46.9375 -0.75 -46.65625 C -1.03125 -46.507812 -1.347656 -46.363281 -1.703125 -46.21875 C -2.054688 -46.082031 -2.414062 -46.015625 -2.78125 -46.015625 C -3.769531 -46.015625 -4.265625 -46.550781 -4.265625 -47.625 C -4.265625 -48.257812 -3.550781 -49.144531 -2.125 -50.28125 C -0.707031 -51.425781 1.082031 -52.671875 3.25 -54.015625 C 5.425781 -55.367188 7.671875 -56.703125 9.984375 -58.015625 C 12.296875 -59.335938 14.34375 -60.492188 16.125 -61.484375 C 17.90625 -62.484375 19.113281 -63.128906 19.75 -63.421875 Z M 29.046875 -67.796875 "/></g></g></g><g fill="#efe1ff" fill-opacity="1"><g transform="translate(504.806923, 162.749989)"><g><path d="M 3.3125 16.65625 C 3.3125 17.4375 3.363281 18.644531 3.46875 20.28125 C 3.570312 21.914062 3.785156 23.640625 4.109375 25.453125 C 4.429688 27.273438 4.894531 28.863281 5.5 30.21875 C 6.101562 31.570312 6.867188 32.351562 7.796875 32.5625 C 8.578125 32.0625 9.335938 31.046875 10.078125 29.515625 C 10.828125 27.984375 11.46875 26.328125 12 24.546875 C 12.539062 22.773438 12.8125 21.25 12.8125 19.96875 L 12.8125 15.90625 C 12.8125 14.269531 12.3125 12.648438 11.3125 11.046875 C 10.320312 9.441406 9.09375 8.070312 7.625 6.9375 C 6.164062 5.800781 4.726562 5.234375 3.3125 5.234375 Z M -13.765625 5.65625 C -13.765625 4.726562 -13.140625 3.960938 -11.890625 3.359375 C -10.648438 2.753906 -9.25 2.273438 -7.6875 1.921875 C -6.125 1.566406 -4.945312 1.351562 -4.15625 1.28125 C -3.019531 1.132812 -2.328125 1.039062 -2.078125 1 C -1.828125 0.96875 -1.664062 0.347656 -1.59375 -0.859375 C -1.53125 -2.566406 -1.265625 -4.71875 -0.796875 -7.3125 C -0.335938 -9.90625 0.242188 -12.679688 0.953125 -15.640625 C 1.671875 -18.597656 2.4375 -21.515625 3.25 -24.390625 C 4.070312 -27.273438 4.925781 -29.875 5.8125 -32.1875 C 6.707031 -34.5 7.582031 -36.226562 8.4375 -37.375 C 9.363281 -38.507812 10.320312 -39.078125 11.3125 -39.078125 C 11.8125 -39.078125 12.238281 -38.878906 12.59375 -38.484375 C 12.945312 -38.097656 13.125 -37.441406 13.125 -36.515625 C 13.125 -35.234375 13.050781 -34.46875 12.90625 -34.21875 C 12.769531 -33.96875 12.554688 -33.804688 12.265625 -33.734375 C 11.984375 -33.660156 11.628906 -33.320312 11.203125 -32.71875 C 10.773438 -32.113281 10.28125 -30.78125 9.71875 -28.71875 C 9 -26.226562 8.425781 -24.21875 8 -22.6875 C 7.570312 -21.15625 7.160156 -19.601562 6.765625 -18.03125 C 6.378906 -16.46875 5.90625 -14.300781 5.34375 -11.53125 C 5.125 -10.394531 4.890625 -8.898438 4.640625 -7.046875 C 4.390625 -5.191406 4.195312 -3.625 4.0625 -2.34375 C 4.488281 -2.488281 5.234375 -2.914062 6.296875 -3.625 C 7.367188 -4.34375 8.523438 -5.179688 9.765625 -6.140625 C 11.015625 -7.097656 12.207031 -8.019531 13.34375 -8.90625 C 14.476562 -9.800781 15.332031 -10.5 15.90625 -11 L 23.703125 -18.359375 C 24.203125 -18.710938 24.703125 -18.890625 25.203125 -18.890625 C 25.984375 -18.890625 26.375 -18.460938 26.375 -17.609375 C 26.375 -16.898438 25.859375 -15.992188 24.828125 -14.890625 C 23.796875 -13.785156 22.671875 -12.695312 21.453125 -11.625 C 20.242188 -10.5625 19.359375 -9.78125 18.796875 -9.28125 L 4.375 1.921875 C 8.5 2.847656 11.503906 4.785156 13.390625 7.734375 C 15.285156 10.691406 16.234375 14.109375 16.234375 17.984375 C 16.234375 21.867188 15.484375 25.769531 13.984375 29.6875 C 13.484375 31.175781 12.679688 32.722656 11.578125 34.328125 C 10.472656 35.929688 8.960938 36.734375 7.046875 36.734375 C 5.410156 36.734375 4.054688 35.945312 2.984375 34.375 C 1.921875 32.8125 1.050781 30.835938 0.375 28.453125 C -0.300781 26.066406 -0.816406 23.609375 -1.171875 21.078125 C -1.523438 18.554688 -1.789062 16.242188 -1.96875 14.140625 C -2.144531 12.046875 -2.269531 10.570312 -2.34375 9.71875 C -2.414062 9.070312 -2.378906 8.394531 -2.234375 7.6875 C -2.097656 6.976562 -2.03125 6.160156 -2.03125 5.234375 C -3.238281 5.515625 -4.609375 6.082031 -6.140625 6.9375 C -7.671875 7.789062 -9.46875 8.21875 -11.53125 8.21875 C -12.8125 8.21875 -13.503906 7.96875 -13.609375 7.46875 C -13.710938 6.96875 -13.765625 6.363281 -13.765625 5.65625 Z M -13.765625 5.65625 "/></g></g></g><g fill="#efe1ff" fill-opacity="1"><g transform="translate(525.947272, 162.749989)"><g><path d="M 3.3125 16.65625 C 3.3125 17.4375 3.363281 18.644531 3.46875 20.28125 C 3.570312 21.914062 3.785156 23.640625 4.109375 25.453125 C 4.429688 27.273438 4.894531 28.863281 5.5 30.21875 C 6.101562 31.570312 6.867188 32.351562 7.796875 32.5625 C 8.578125 32.0625 9.335938 31.046875 10.078125 29.515625 C 10.828125 27.984375 11.46875 26.328125 12 24.546875 C 12.539062 22.773438 12.8125 21.25 12.8125 19.96875 L 12.8125 15.90625 C 12.8125 14.269531 12.3125 12.648438 11.3125 11.046875 C 10.320312 9.441406 9.09375 8.070312 7.625 6.9375 C 6.164062 5.800781 4.726562 5.234375 3.3125 5.234375 Z M -13.765625 5.65625 C -13.765625 4.726562 -13.140625 3.960938 -11.890625 3.359375 C -10.648438 2.753906 -9.25 2.273438 -7.6875 1.921875 C -6.125 1.566406 -4.945312 1.351562 -4.15625 1.28125 C -3.019531 1.132812 -2.328125 1.039062 -2.078125 1 C -1.828125 0.96875 -1.664062 0.347656 -1.59375 -0.859375 C -1.53125 -2.566406 -1.265625 -4.71875 -0.796875 -7.3125 C -0.335938 -9.90625 0.242188 -12.679688 0.953125 -15.640625 C 1.671875 -18.597656 2.4375 -21.515625 3.25 -24.390625 C 4.070312 -27.273438 4.925781 -29.875 5.8125 -32.1875 C 6.707031 -34.5 7.582031 -36.226562 8.4375 -37.375 C 9.363281 -38.507812 10.320312 -39.078125 11.3125 -39.078125 C 11.8125 -39.078125 12.238281 -38.878906 12.59375 -38.484375 C 12.945312 -38.097656 13.125 -37.441406 13.125 -36.515625 C 13.125 -35.234375 13.050781 -34.46875 12.90625 -34.21875 C 12.769531 -33.96875 12.554688 -33.804688 12.265625 -33.734375 C 11.984375 -33.660156 11.628906 -33.320312 11.203125 -32.71875 C 10.773438 -32.113281 10.28125 -30.78125 9.71875 -28.71875 C 9 -26.226562 8.425781 -24.21875 8 -22.6875 C 7.570312 -21.15625 7.160156 -19.601562 6.765625 -18.03125 C 6.378906 -16.46875 5.90625 -14.300781 5.34375 -11.53125 C 5.125 -10.394531 4.890625 -8.898438 4.640625 -7.046875 C 4.390625 -5.191406 4.195312 -3.625 4.0625 -2.34375 C 4.488281 -2.488281 5.234375 -2.914062 6.296875 -3.625 C 7.367188 -4.34375 8.523438 -5.179688 9.765625 -6.140625 C 11.015625 -7.097656 12.207031 -8.019531 13.34375 -8.90625 C 14.476562 -9.800781 15.332031 -10.5 15.90625 -11 L 23.703125 -18.359375 C 24.203125 -18.710938 24.703125 -18.890625 25.203125 -18.890625 C 25.984375 -18.890625 26.375 -18.460938 26.375 -17.609375 C 26.375 -16.898438 25.859375 -15.992188 24.828125 -14.890625 C 23.796875 -13.785156 22.671875 -12.695312 21.453125 -11.625 C 20.242188 -10.5625 19.359375 -9.78125 18.796875 -9.28125 L 4.375 1.921875 C 8.5 2.847656 11.503906 4.785156 13.390625 7.734375 C 15.285156 10.691406 16.234375 14.109375 16.234375 17.984375 C 16.234375 21.867188 15.484375 25.769531 13.984375 29.6875 C 13.484375 31.175781 12.679688 32.722656 11.578125 34.328125 C 10.472656 35.929688 8.960938 36.734375 7.046875 36.734375 C 5.410156 36.734375 4.054688 35.945312 2.984375 34.375 C 1.921875 32.8125 1.050781 30.835938 0.375 28.453125 C -0.300781 26.066406 -0.816406 23.609375 -1.171875 21.078125 C -1.523438 18.554688 -1.789062 16.242188 -1.96875 14.140625 C -2.144531 12.046875 -2.269531 10.570312 -2.34375 9.71875 C -2.414062 9.070312 -2.378906 8.394531 -2.234375 7.6875 C -2.097656 6.976562 -2.03125 6.160156 -2.03125 5.234375 C -3.238281 5.515625 -4.609375 6.082031 -6.140625 6.9375 C -7.671875 7.789062 -9.46875 8.21875 -11.53125 8.21875 C -12.8125 8.21875 -13.503906 7.96875 -13.609375 7.46875 C -13.710938 6.96875 -13.765625 6.363281 -13.765625 5.65625 Z M -13.765625 5.65625 "/></g></g></g><g fill="#efe1ff" fill-opacity="1"><g transform="translate(547.087621, 162.749989)"><g><path d="M 5.34375 -2.453125 C 6.40625 -2.734375 7.363281 -3.675781 8.21875 -5.28125 C 9.070312 -6.882812 9.675781 -8.71875 10.03125 -10.78125 C 10.382812 -12.84375 10.472656 -14.742188 10.296875 -16.484375 C 10.117188 -18.234375 9.566406 -19.429688 8.640625 -20.078125 C 8.429688 -19.285156 8.039062 -18.160156 7.46875 -16.703125 C 6.90625 -15.242188 6.351562 -13.640625 5.8125 -11.890625 C 5.28125 -10.148438 4.925781 -8.441406 4.75 -6.765625 C 4.570312 -5.097656 4.769531 -3.660156 5.34375 -2.453125 Z M 0 -6.078125 C 0 -7.003906 0.191406 -8.375 0.578125 -10.1875 C 0.972656 -12.007812 1.523438 -13.96875 2.234375 -16.0625 C 2.953125 -18.164062 3.753906 -20.160156 4.640625 -22.046875 C 5.535156 -23.929688 6.5 -25.476562 7.53125 -26.6875 C 8.5625 -27.894531 9.609375 -28.5 10.671875 -28.5 C 11.390625 -28.5 11.890625 -28.175781 12.171875 -27.53125 C 12.453125 -26.894531 12.523438 -26.363281 12.390625 -25.9375 C 12.242188 -25.582031 11.972656 -25.226562 11.578125 -24.875 C 11.191406 -24.519531 10.851562 -24.128906 10.5625 -23.703125 C 10.707031 -23.203125 11.0625 -22.648438 11.625 -22.046875 C 12.195312 -21.441406 12.769531 -20.640625 13.34375 -19.640625 C 13.914062 -18.648438 14.289062 -17.300781 14.46875 -15.59375 C 14.644531 -13.882812 14.445312 -11.640625 13.875 -8.859375 C 13.09375 -5.160156 11.847656 -2.382812 10.140625 -0.53125 C 8.429688 1.3125 6.757812 2.234375 5.125 2.234375 C 3.769531 2.234375 2.578125 1.539062 1.546875 0.15625 C 0.515625 -1.226562 0 -3.304688 0 -6.078125 Z M 0 -6.078125 "/></g></g></g><g fill="#efe1ff" fill-opacity="1"><g transform="translate(565.879047, 162.749989)"><g><path d="M 1.5 -0.421875 C 0.78125 -0.421875 0.347656 -0.863281 0.203125 -1.75 C 0.0664062 -2.644531 0.0351562 -3.585938 0.109375 -4.578125 C 0.179688 -5.578125 0.21875 -6.1875 0.21875 -6.40625 C 0.144531 -7.6875 0.125 -8.984375 0.15625 -10.296875 C 0.195312 -11.617188 0.179688 -12.957031 0.109375 -14.3125 C 0.109375 -14.800781 0.125 -15.738281 0.15625 -17.125 C 0.195312 -18.519531 0.304688 -20 0.484375 -21.5625 C 0.660156 -23.132812 0.925781 -24.488281 1.28125 -25.625 C 1.632812 -26.757812 2.097656 -27.328125 2.671875 -27.328125 C 4.085938 -27.328125 4.8125 -26.863281 4.84375 -25.9375 C 4.882812 -25.019531 4.835938 -23.8125 4.703125 -22.3125 C 4.628906 -21.8125 4.59375 -21.257812 4.59375 -20.65625 C 4.59375 -20.050781 4.59375 -19.460938 4.59375 -18.890625 C 4.59375 -18.179688 4.554688 -17.71875 4.484375 -17.5 C 4.410156 -17.289062 4.375 -16.832031 4.375 -16.125 C 5.15625 -16.6875 5.863281 -17.34375 6.5 -18.09375 C 7.144531 -18.84375 8.285156 -19.21875 9.921875 -19.21875 C 10.421875 -19.21875 11.078125 -19.234375 11.890625 -19.265625 C 12.710938 -19.304688 13.585938 -19.328125 14.515625 -19.328125 C 16.085938 -19.328125 17.546875 -19.238281 18.890625 -19.0625 C 20.242188 -18.882812 20.921875 -18.4375 20.921875 -17.71875 C 20.921875 -17.007812 20.546875 -16.546875 19.796875 -16.328125 C 19.054688 -16.117188 18.148438 -16.015625 17.078125 -16.015625 C 16.367188 -16.015625 15.640625 -16.03125 14.890625 -16.0625 C 14.140625 -16.101562 13.484375 -16.125 12.921875 -16.125 C 10.921875 -16.125 9.582031 -16.015625 8.90625 -15.796875 C 8.238281 -15.585938 7.476562 -14.769531 6.625 -13.34375 C 6.125 -12.414062 5.640625 -11.414062 5.171875 -10.34375 C 4.710938 -9.28125 4.375 -8.109375 4.15625 -6.828125 C 3.945312 -5.898438 3.859375 -4.9375 3.890625 -3.9375 C 3.929688 -2.945312 3.828125 -2.113281 3.578125 -1.4375 C 3.328125 -0.757812 2.632812 -0.421875 1.5 -0.421875 Z M 1.5 -0.421875 "/></g></g></g><g fill="#efe1ff" fill-opacity="1"><g transform="translate(583.282466, 162.749989)"><g><path d="M -30 -47.625 C -30 -48.539062 -29.144531 -49.515625 -27.4375 -50.546875 C -25.726562 -51.585938 -23.570312 -52.601562 -20.96875 -53.59375 C -18.375 -54.59375 -15.632812 -55.535156 -12.75 -56.421875 C -9.875 -57.316406 -7.222656 -58.082031 -4.796875 -58.71875 C -2.378906 -59.363281 -0.566406 -59.863281 0.640625 -60.21875 C 2.128906 -60.644531 3.175781 -60.890625 3.78125 -60.953125 C 4.394531 -61.023438 4.789062 -61.257812 4.96875 -61.65625 C 5.144531 -62.050781 5.335938 -62.851562 5.546875 -64.0625 C 6.117188 -66.976562 6.773438 -68.988281 7.515625 -70.09375 C 8.265625 -71.195312 9 -71.75 9.71875 -71.75 C 10.28125 -71.75 10.757812 -71.445312 11.15625 -70.84375 C 11.550781 -70.238281 11.75 -69.507812 11.75 -68.65625 C 11.75 -68.007812 11.710938 -67.738281 11.640625 -67.84375 C 11.566406 -67.957031 11.566406 -67.726562 11.640625 -67.15625 C 11.640625 -67.007812 11.65625 -66.828125 11.6875 -66.609375 C 11.726562 -66.398438 11.75 -66.117188 11.75 -65.765625 C 11.75 -64.835938 11.566406 -64.375 11.203125 -64.375 C 10.847656 -64.375 10.492188 -64.320312 10.140625 -64.21875 C 9.785156 -64.113281 9.609375 -63.488281 9.609375 -62.34375 C 10.460938 -62.34375 11.40625 -62.46875 12.4375 -62.71875 C 13.46875 -62.96875 14.375 -63.128906 15.15625 -63.203125 C 18.289062 -63.773438 21.421875 -64.289062 24.546875 -64.75 C 27.679688 -65.21875 30.890625 -65.453125 34.171875 -65.453125 C 35.878906 -65.453125 37.125 -65.09375 37.90625 -64.375 C 38.6875 -63.664062 38.96875 -62.953125 38.75 -62.234375 C 38.539062 -61.523438 37.757812 -61.171875 36.40625 -61.171875 C 36.257812 -61.742188 36.171875 -62.007812 36.140625 -61.96875 C 36.109375 -61.9375 35.769531 -61.992188 35.125 -62.140625 C 34.84375 -62.210938 34.273438 -62.25 33.421875 -62.25 C 31.921875 -62.25 29.941406 -62.085938 27.484375 -61.765625 C 25.035156 -61.441406 22.492188 -61.066406 19.859375 -60.640625 C 17.222656 -60.210938 14.875 -59.800781 12.8125 -59.40625 C 10.75 -59.019531 9.394531 -58.753906 8.75 -58.609375 L 6.625 -36.734375 C 6.550781 -36.234375 6.53125 -35.695312 6.5625 -35.125 C 6.601562 -34.550781 6.625 -33.984375 6.625 -33.421875 C 6.625 -32.703125 6.566406 -32.234375 6.453125 -32.015625 C 6.347656 -31.804688 6.296875 -31.3125 6.296875 -30.53125 C 6.296875 -28.96875 6.332031 -27.171875 6.40625 -25.140625 C 6.476562 -23.109375 6.441406 -21.523438 6.296875 -20.390625 C 6.222656 -19.753906 6.164062 -18.488281 6.125 -16.59375 C 6.09375 -14.707031 6.0625 -12.519531 6.03125 -10.03125 C 6 -7.539062 5.984375 -5.03125 5.984375 -2.5 C 5.984375 0.0195312 5.984375 2.3125 5.984375 4.375 C 5.984375 6.4375 6.015625 7.929688 6.078125 8.859375 C 6.078125 9.640625 6.164062 10.832031 6.34375 12.4375 C 6.53125 14.039062 6.566406 15.484375 6.453125 16.765625 C 6.347656 18.046875 5.832031 18.6875 4.90625 18.6875 C 3.550781 18.6875 2.734375 17.9375 2.453125 16.4375 C 2.171875 14.945312 2.03125 13.5625 2.03125 12.28125 C 1.8125 9.71875 1.679688 6.726562 1.640625 3.3125 C 1.609375 -0.101562 1.609375 -3.519531 1.640625 -6.9375 C 1.679688 -10.351562 1.703125 -13.34375 1.703125 -15.90625 L 2.03125 -20.921875 C 2.03125 -21.921875 2.03125 -23.453125 2.03125 -25.515625 C 2.03125 -27.578125 2.0625 -29.765625 2.125 -32.078125 C 2.195312 -34.390625 2.269531 -36.503906 2.34375 -38.421875 C 2.414062 -40.347656 2.523438 -41.707031 2.671875 -42.5 C 2.804688 -43.207031 2.890625 -44.054688 2.921875 -45.046875 C 2.960938 -46.046875 3.019531 -46.90625 3.09375 -47.625 L 4.0625 -57.546875 C 3.769531 -57.472656 3.144531 -57.328125 2.1875 -57.109375 C 1.226562 -56.898438 0.460938 -56.722656 -0.109375 -56.578125 C -3.597656 -55.722656 -6.925781 -54.816406 -10.09375 -53.859375 C -13.257812 -52.898438 -16.515625 -51.78125 -19.859375 -50.5 C -20.492188 -50.21875 -21.078125 -49.914062 -21.609375 -49.59375 C -22.148438 -49.269531 -22.738281 -48.96875 -23.375 -48.6875 C -24.226562 -48.332031 -24.78125 -48.082031 -25.03125 -47.9375 C -25.28125 -47.789062 -25.40625 -47.609375 -25.40625 -47.390625 C -25.40625 -47.179688 -25.582031 -46.722656 -25.9375 -46.015625 C -26.226562 -45.941406 -26.515625 -45.882812 -26.796875 -45.84375 C -27.078125 -45.8125 -27.398438 -45.796875 -27.765625 -45.796875 C -28.328125 -45.796875 -28.835938 -45.921875 -29.296875 -46.171875 C -29.765625 -46.421875 -30 -46.90625 -30 -47.625 Z M -30 -47.625 "/></g></g></g><g fill="#efe1ff" fill-opacity="1"><g transform="translate(595.667741, 162.749989)"><g><path d="M 0.21875 -8.21875 C 0.21875 -11.78125 0.429688 -15.625 0.859375 -19.75 C 1.285156 -23.875 1.851562 -27.960938 2.5625 -32.015625 C 3.269531 -36.078125 4.050781 -39.75 4.90625 -43.03125 C 5.257812 -44.09375 5.613281 -45.28125 5.96875 -46.59375 C 6.332031 -47.914062 6.796875 -49.054688 7.359375 -50.015625 C 7.929688 -50.984375 8.679688 -51.46875 9.609375 -51.46875 C 10.460938 -51.46875 10.992188 -51.144531 11.203125 -50.5 C 11.421875 -49.863281 11.441406 -49.097656 11.265625 -48.203125 C 11.085938 -47.316406 10.851562 -46.5 10.5625 -45.75 C 10.28125 -45 10.101562 -44.484375 10.03125 -44.203125 C 9.46875 -42.066406 8.8125 -39.164062 8.0625 -35.5 C 7.3125 -31.832031 6.597656 -27.828125 5.921875 -23.484375 C 5.242188 -19.140625 4.726562 -14.832031 4.375 -10.5625 C 4.019531 -6.289062 3.945312 -2.429688 4.15625 1.015625 C 4.375 4.460938 4.945312 7.113281 5.875 8.96875 C 7.082031 8.320312 8.078125 7.359375 8.859375 6.078125 C 9.640625 4.796875 10.316406 3.550781 10.890625 2.34375 C 12.523438 -0.78125 14.125 -4.085938 15.6875 -7.578125 C 17.257812 -11.066406 18.898438 -14.34375 20.609375 -17.40625 C 21.171875 -18.539062 21.773438 -19.109375 22.421875 -19.109375 C 22.703125 -19.109375 22.929688 -18.984375 23.109375 -18.734375 C 23.285156 -18.484375 23.375 -18.21875 23.375 -17.9375 C 23.375 -17.71875 23.085938 -17.039062 22.515625 -15.90625 C 21.953125 -14.769531 21.367188 -13.59375 20.765625 -12.375 C 20.160156 -11.164062 19.75 -10.382812 19.53125 -10.03125 C 18.820312 -8.539062 18.019531 -6.796875 17.125 -4.796875 C 16.238281 -2.804688 15.367188 -0.851562 14.515625 1.0625 C 13.660156 2.988281 12.84375 4.628906 12.0625 5.984375 C 11.707031 6.546875 11.226562 7.304688 10.625 8.265625 C 10.019531 9.234375 9.359375 10.070312 8.640625 10.78125 C 7.929688 11.488281 7.113281 11.84375 6.1875 11.84375 C 4.769531 11.84375 3.648438 11.128906 2.828125 9.703125 C 2.003906 8.285156 1.414062 6.507812 1.0625 4.375 C 0.707031 2.238281 0.476562 0.0351562 0.375 -2.234375 C 0.269531 -4.515625 0.21875 -6.507812 0.21875 -8.21875 Z M 0.21875 -8.21875 "/></g></g></g><g fill="#efe1ff" fill-opacity="1"><g transform="translate(614.459168, 162.749989)"><g><path d="M 4.90625 -19.328125 C 6.257812 -20.035156 7.753906 -21.007812 9.390625 -22.25 C 11.023438 -23.5 11.914062 -24.976562 12.0625 -26.6875 C 11.132812 -26.550781 10.15625 -26.054688 9.125 -25.203125 C 8.09375 -24.347656 7.203125 -23.382812 6.453125 -22.3125 C 5.710938 -21.25 5.195312 -20.253906 4.90625 -19.328125 Z M 0.109375 -16.765625 C 0.109375 -18.546875 0.691406 -20.46875 1.859375 -22.53125 C 3.035156 -24.59375 4.492188 -26.351562 6.234375 -27.8125 C 7.984375 -29.269531 9.710938 -30 11.421875 -30 C 13.773438 -30 15.003906 -29.109375 15.109375 -27.328125 C 15.210938 -25.546875 14.445312 -23.625 12.8125 -21.5625 C 11.957031 -20.632812 10.675781 -19.566406 8.96875 -18.359375 C 7.257812 -17.148438 5.585938 -16.472656 3.953125 -16.328125 C 3.953125 -15.191406 3.984375 -14.175781 4.046875 -13.28125 C 4.117188 -12.394531 4.617188 -11.488281 5.546875 -10.5625 C 6.472656 -9.644531 7.648438 -9.1875 9.078125 -9.1875 C 10.921875 -9.1875 12.835938 -9.769531 14.828125 -10.9375 C 16.828125 -12.113281 18.363281 -13.09375 19.4375 -13.875 C 19.863281 -14.226562 20.195312 -14.507812 20.4375 -14.71875 C 20.6875 -14.9375 20.992188 -15.191406 21.359375 -15.484375 C 22.847656 -16.617188 23.785156 -17.453125 24.171875 -17.984375 C 24.566406 -18.523438 24.90625 -18.882812 25.1875 -19.0625 C 25.476562 -19.238281 26.15625 -19.328125 27.21875 -19.328125 C 27.363281 -18.546875 27.414062 -18.007812 27.375 -17.71875 C 27.34375 -17.4375 27.078125 -17.007812 26.578125 -16.4375 C 25.296875 -15.15625 23.675781 -13.695312 21.71875 -12.0625 C 19.769531 -10.425781 17.671875 -9.003906 15.421875 -7.796875 C 13.179688 -6.585938 10.957031 -5.984375 8.75 -5.984375 C 7.613281 -5.984375 6.53125 -6.175781 5.5 -6.5625 C 4.46875 -6.957031 3.488281 -7.617188 2.5625 -8.546875 C 1.28125 -9.828125 0.550781 -11.140625 0.375 -12.484375 C 0.195312 -13.835938 0.109375 -15.265625 0.109375 -16.765625 Z M 0.109375 -16.765625 "/></g></g></g><g fill="#efe1ff" fill-opacity="1"><g transform="translate(637.628143, 162.749989)"><g><path d="M 1.28125 17.609375 C 1.28125 19.109375 1.742188 19.859375 2.671875 19.859375 C 3.171875 19.859375 3.703125 19.679688 4.265625 19.328125 C 4.835938 18.972656 5.300781 18.648438 5.65625 18.359375 C 7.082031 17.296875 8.347656 15.675781 9.453125 13.5 C 10.554688 11.332031 11.351562 9.359375 11.84375 7.578125 C 12.207031 6.367188 12.40625 5.140625 12.4375 3.890625 C 12.46875 2.648438 12.484375 1.28125 12.484375 -0.21875 C 11.628906 0.28125 10.648438 1.148438 9.546875 2.390625 C 8.453125 3.640625 7.582031 4.65625 6.9375 5.4375 C 5.65625 7.007812 4.390625 8.894531 3.140625 11.09375 C 1.898438 13.300781 1.28125 15.472656 1.28125 17.609375 Z M 0.3125 -17.296875 C 0.3125 -19.148438 0.8125 -20.804688 1.8125 -22.265625 C 2.8125 -23.722656 4.003906 -24.894531 5.390625 -25.78125 C 6.773438 -26.675781 7.96875 -27.125 8.96875 -27.125 C 9.75 -27.125 10.332031 -26.835938 10.71875 -26.265625 C 11.113281 -25.691406 11.132812 -24.726562 10.78125 -23.375 C 9.925781 -23.164062 9.320312 -23.039062 8.96875 -23 C 8.613281 -22.96875 8.328125 -22.863281 8.109375 -22.6875 C 7.898438 -22.507812 7.507812 -22.097656 6.9375 -21.453125 C 5.507812 -19.890625 4.847656 -18.628906 4.953125 -17.671875 C 5.066406 -16.710938 5.640625 -15.820312 6.671875 -15 C 7.703125 -14.175781 8.984375 -13.160156 10.515625 -11.953125 C 12.046875 -10.742188 13.488281 -9.109375 14.84375 -7.046875 C 16.40625 -8.109375 18.003906 -9.351562 19.640625 -10.78125 L 29.578125 -17.71875 C 30.503906 -18.363281 31.300781 -18.8125 31.96875 -19.0625 C 32.644531 -19.3125 33.234375 -19.4375 33.734375 -19.4375 C 34.585938 -19.4375 34.941406 -19.078125 34.796875 -18.359375 C 34.660156 -17.648438 33.988281 -16.941406 32.78125 -16.234375 L 25.515625 -11.203125 C 25.234375 -11.066406 24.628906 -10.660156 23.703125 -9.984375 C 22.773438 -9.304688 21.757812 -8.554688 20.65625 -7.734375 C 19.550781 -6.921875 18.609375 -6.15625 17.828125 -5.4375 C 17.046875 -4.726562 16.617188 -4.269531 16.546875 -4.0625 C 16.472656 -3.695312 16.578125 -3.015625 16.859375 -2.015625 C 17.148438 -1.023438 17.347656 0.265625 17.453125 1.859375 C 17.554688 3.460938 17.34375 5.421875 16.8125 7.734375 C 16.28125 10.046875 15.125 12.734375 13.34375 15.796875 C 11.78125 18.429688 10.070312 20.367188 8.21875 21.609375 C 6.363281 22.859375 4.617188 23.484375 2.984375 23.484375 C 1.492188 23.484375 0.269531 22.984375 -0.6875 21.984375 C -1.65625 20.992188 -2.140625 19.535156 -2.140625 17.609375 C -2.140625 15.191406 -1.550781 12.84375 -0.375 10.5625 C 0.800781 8.289062 2.207031 6.191406 3.84375 4.265625 C 5.476562 2.347656 6.988281 0.695312 8.375 -0.6875 C 9.769531 -2.082031 10.679688 -3.097656 11.109375 -3.734375 C 10.253906 -5.234375 9.21875 -6.53125 8 -7.625 C 6.789062 -8.726562 5.597656 -9.742188 4.421875 -10.671875 C 3.253906 -11.597656 2.273438 -12.578125 1.484375 -13.609375 C 0.703125 -14.640625 0.3125 -15.867188 0.3125 -17.296875 Z M 0.3125 -17.296875 "/></g></g></g><g fill="#efe1ff" fill-opacity="1"><g transform="translate(668.484525, 162.749989)"><g><path d="M 1.28125 17.609375 C 1.28125 19.109375 1.742188 19.859375 2.671875 19.859375 C 3.171875 19.859375 3.703125 19.679688 4.265625 19.328125 C 4.835938 18.972656 5.300781 18.648438 5.65625 18.359375 C 7.082031 17.296875 8.347656 15.675781 9.453125 13.5 C 10.554688 11.332031 11.351562 9.359375 11.84375 7.578125 C 12.207031 6.367188 12.40625 5.140625 12.4375 3.890625 C 12.46875 2.648438 12.484375 1.28125 12.484375 -0.21875 C 11.628906 0.28125 10.648438 1.148438 9.546875 2.390625 C 8.453125 3.640625 7.582031 4.65625 6.9375 5.4375 C 5.65625 7.007812 4.390625 8.894531 3.140625 11.09375 C 1.898438 13.300781 1.28125 15.472656 1.28125 17.609375 Z M 0.3125 -17.296875 C 0.3125 -19.148438 0.8125 -20.804688 1.8125 -22.265625 C 2.8125 -23.722656 4.003906 -24.894531 5.390625 -25.78125 C 6.773438 -26.675781 7.96875 -27.125 8.96875 -27.125 C 9.75 -27.125 10.332031 -26.835938 10.71875 -26.265625 C 11.113281 -25.691406 11.132812 -24.726562 10.78125 -23.375 C 9.925781 -23.164062 9.320312 -23.039062 8.96875 -23 C 8.613281 -22.96875 8.328125 -22.863281 8.109375 -22.6875 C 7.898438 -22.507812 7.507812 -22.097656 6.9375 -21.453125 C 5.507812 -19.890625 4.847656 -18.628906 4.953125 -17.671875 C 5.066406 -16.710938 5.640625 -15.820312 6.671875 -15 C 7.703125 -14.175781 8.984375 -13.160156 10.515625 -11.953125 C 12.046875 -10.742188 13.488281 -9.109375 14.84375 -7.046875 C 16.40625 -8.109375 18.003906 -9.351562 19.640625 -10.78125 L 29.578125 -17.71875 C 30.503906 -18.363281 31.300781 -18.8125 31.96875 -19.0625 C 32.644531 -19.3125 33.234375 -19.4375 33.734375 -19.4375 C 34.585938 -19.4375 34.941406 -19.078125 34.796875 -18.359375 C 34.660156 -17.648438 33.988281 -16.941406 32.78125 -16.234375 L 25.515625 -11.203125 C 25.234375 -11.066406 24.628906 -10.660156 23.703125 -9.984375 C 22.773438 -9.304688 21.757812 -8.554688 20.65625 -7.734375 C 19.550781 -6.921875 18.609375 -6.15625 17.828125 -5.4375 C 17.046875 -4.726562 16.617188 -4.269531 16.546875 -4.0625 C 16.472656 -3.695312 16.578125 -3.015625 16.859375 -2.015625 C 17.148438 -1.023438 17.347656 0.265625 17.453125 1.859375 C 17.554688 3.460938 17.34375 5.421875 16.8125 7.734375 C 16.28125 10.046875 15.125 12.734375 13.34375 15.796875 C 11.78125 18.429688 10.070312 20.367188 8.21875 21.609375 C 6.363281 22.859375 4.617188 23.484375 2.984375 23.484375 C 1.492188 23.484375 0.269531 22.984375 -0.6875 21.984375 C -1.65625 20.992188 -2.140625 19.535156 -2.140625 17.609375 C -2.140625 15.191406 -1.550781 12.84375 -0.375 10.5625 C 0.800781 8.289062 2.207031 6.191406 3.84375 4.265625 C 5.476562 2.347656 6.988281 0.695312 8.375 -0.6875 C 9.769531 -2.082031 10.679688 -3.097656 11.109375 -3.734375 C 10.253906 -5.234375 9.21875 -6.53125 8 -7.625 C 6.789062 -8.726562 5.597656 -9.742188 4.421875 -10.671875 C 3.253906 -11.597656 2.273438 -12.578125 1.484375 -13.609375 C 0.703125 -14.640625 0.3125 -15.867188 0.3125 -17.296875 Z M 0.3125 -17.296875 "/></g></g></g><g fill="#efe1ff" fill-opacity="1"><g transform="translate(699.340907, 162.749989)"><g/></g></g><g fill="#efe1ff" fill-opacity="1"><g transform="translate(726.99418, 162.749989)"><g><path d="M 68.015625 -85.203125 C 68.015625 -85.554688 68.28125 -85.875 68.8125 -86.15625 C 69.34375 -86.445312 69.75 -86.625 70.03125 -86.6875 C 70.601562 -86.125 71.191406 -84.96875 71.796875 -83.21875 C 72.398438 -81.476562 72.953125 -79.578125 73.453125 -77.515625 C 73.953125 -75.453125 74.378906 -73.546875 74.734375 -71.796875 C 75.085938 -70.054688 75.300781 -68.863281 75.375 -68.21875 C 76.15625 -63.738281 76.882812 -59.328125 77.5625 -54.984375 C 78.238281 -50.640625 78.578125 -46.226562 78.578125 -41.75 C 78.503906 -40.46875 78.539062 -39.488281 78.6875 -38.8125 C 78.832031 -38.132812 78.90625 -37.191406 78.90625 -35.984375 L 78.796875 -29.046875 C 78.796875 -28.828125 78.8125 -28.679688 78.84375 -28.609375 C 78.882812 -28.535156 78.867188 -28.320312 78.796875 -27.96875 C 78.367188 -22.0625 77.90625 -16.5625 77.40625 -11.46875 C 76.90625 -6.382812 76.226562 -1.457031 75.375 3.3125 C 74.519531 8.082031 73.398438 12.90625 72.015625 17.78125 C 70.628906 22.65625 68.832031 27.867188 66.625 33.421875 C 66.125 34.703125 65.390625 36.285156 64.421875 38.171875 C 63.460938 40.054688 62.378906 42.007812 61.171875 44.03125 C 59.960938 46.0625 58.734375 47.914062 57.484375 49.59375 C 56.242188 51.269531 55.085938 52.53125 54.015625 53.375 C 52.597656 54.519531 51.101562 55.535156 49.53125 56.421875 C 47.96875 57.316406 46.332031 57.765625 44.625 57.765625 C 42.351562 57.765625 40.203125 56.960938 38.171875 55.359375 C 36.140625 53.753906 34.59375 51.992188 33.53125 50.078125 C 32.101562 47.796875 30.90625 45 29.9375 41.6875 C 28.976562 38.382812 28.210938 34.828125 27.640625 31.015625 C 27.078125 27.203125 26.671875 23.359375 26.421875 19.484375 C 26.171875 15.609375 26.007812 11.925781 25.9375 8.4375 C 25.875 4.945312 25.84375 1.921875 25.84375 -0.640625 C 25.84375 -1.703125 25.894531 -2.484375 26 -2.984375 C 26.101562 -3.484375 26.15625 -4.234375 26.15625 -5.234375 C 26.15625 -6.648438 26.132812 -8.25 26.09375 -10.03125 C 26.0625 -11.8125 26.082031 -13.378906 26.15625 -14.734375 C 26.300781 -15.515625 26.390625 -16.222656 26.421875 -16.859375 C 26.460938 -17.503906 26.484375 -18.328125 26.484375 -19.328125 C 26.484375 -20.179688 26.550781 -21.375 26.6875 -22.90625 C 26.832031 -24.4375 26.957031 -26.085938 27.0625 -27.859375 C 27.164062 -29.640625 27.21875 -31.28125 27.21875 -32.78125 L 26.6875 -31.921875 C 26.613281 -31.710938 26.578125 -31.550781 26.578125 -31.4375 C 26.578125 -31.332031 26.507812 -31.140625 26.375 -30.859375 L 17.515625 -3.953125 C 16.867188 -2.097656 16.132812 0.109375 15.3125 2.671875 C 14.5 5.234375 13.628906 7.898438 12.703125 10.671875 C 11.773438 13.453125 10.882812 16.050781 10.03125 18.46875 C 9.175781 20.882812 8.394531 22.84375 7.6875 24.34375 C 6.832031 26.050781 6.191406 27.382812 5.765625 28.34375 C 5.335938 29.300781 4.851562 29.957031 4.3125 30.3125 C 3.78125 30.675781 2.910156 30.859375 1.703125 30.859375 C 1.066406 30.859375 0.570312 30.429688 0.21875 29.578125 C -0.132812 28.722656 -0.398438 27.722656 -0.578125 26.578125 C -0.765625 25.441406 -0.875 24.375 -0.90625 23.375 C -0.9375 22.382812 -0.953125 21.742188 -0.953125 21.453125 C -0.890625 20.671875 -0.875 20.140625 -0.90625 19.859375 C -0.9375 19.578125 -0.921875 19.078125 -0.859375 18.359375 C -0.566406 15.796875 -0.398438 13.285156 -0.359375 10.828125 C -0.328125 8.378906 -0.132812 5.941406 0.21875 3.515625 C 0.78125 -0.253906 1.238281 -3.472656 1.59375 -6.140625 C 1.957031 -8.804688 2.367188 -11.507812 2.828125 -14.25 C 3.285156 -16.988281 3.910156 -20.28125 4.703125 -24.125 L 6.296875 -30.75 C 6.441406 -31.382812 6.582031 -31.953125 6.71875 -32.453125 C 6.863281 -32.953125 7.007812 -33.523438 7.15625 -34.171875 L 15.375 -61.609375 C 15.65625 -62.316406 15.867188 -62.847656 16.015625 -63.203125 C 16.160156 -63.554688 16.375 -64.019531 16.65625 -64.59375 C 17.789062 -67.300781 18.625 -69.171875 19.15625 -70.203125 C 19.695312 -71.234375 20.5 -71.75 21.5625 -71.75 C 22.0625 -71.75 22.664062 -71.640625 23.375 -71.421875 C 23.664062 -70.210938 23.789062 -69.375 23.75 -68.90625 C 23.71875 -68.445312 23.59375 -68.128906 23.375 -67.953125 C 23.164062 -67.773438 22.882812 -67.4375 22.53125 -66.9375 C 22.175781 -66.582031 21.675781 -65.566406 21.03125 -63.890625 C 20.394531 -62.222656 19.738281 -60.335938 19.0625 -58.234375 C 18.382812 -56.140625 17.757812 -54.164062 17.1875 -52.3125 C 16.613281 -50.46875 16.222656 -49.222656 16.015625 -48.578125 C 15.515625 -46.722656 15.015625 -44.890625 14.515625 -43.078125 C 14.015625 -41.265625 13.484375 -39.394531 12.921875 -37.46875 L 8.96875 -20.28125 C 8.394531 -17.082031 7.894531 -14.269531 7.46875 -11.84375 C 7.039062 -9.425781 6.664062 -7.113281 6.34375 -4.90625 C 6.03125 -2.695312 5.691406 -0.40625 5.328125 1.96875 C 4.972656 4.351562 4.582031 7.148438 4.15625 10.359375 C 3.875 12.421875 3.695312 14.554688 3.625 16.765625 C 3.550781 18.972656 3.515625 21.320312 3.515625 23.8125 L 4.265625 22.203125 C 5.046875 20.492188 5.878906 18.429688 6.765625 16.015625 C 7.660156 13.597656 8.535156 11.175781 9.390625 8.75 C 10.242188 6.332031 10.957031 4.234375 11.53125 2.453125 L 25.84375 -41.3125 C 26.195312 -42.457031 26.601562 -43.6875 27.0625 -45 C 27.53125 -46.320312 28.257812 -47.125 29.25 -47.40625 C 29.46875 -47.476562 29.71875 -47.515625 30 -47.515625 C 31 -47.515625 31.675781 -46.90625 32.03125 -45.6875 C 32.382812 -44.476562 32.5625 -43.003906 32.5625 -41.265625 C 32.5625 -39.523438 32.507812 -37.816406 32.40625 -36.140625 C 32.300781 -34.460938 32.25 -33.128906 32.25 -32.140625 L 31.171875 -13.765625 C 31.035156 -12.347656 31 -10.75 31.0625 -8.96875 C 31.132812 -7.1875 31.171875 -5.550781 31.171875 -4.0625 C 31.171875 -3.34375 31.132812 -2.535156 31.0625 -1.640625 C 31 -0.753906 30.96875 -0.0664062 30.96875 0.421875 C 31.03125 1.347656 31.046875 1.9375 31.015625 2.1875 C 30.984375 2.4375 30.945312 2.773438 30.90625 3.203125 C 30.875 3.628906 30.894531 4.625 30.96875 6.1875 C 31.101562 7.6875 31.148438 9.71875 31.109375 12.28125 C 31.078125 14.84375 31.171875 17.15625 31.390625 19.21875 C 31.597656 21 31.738281 22.5625 31.8125 23.90625 C 31.882812 25.257812 31.988281 26.664062 32.125 28.125 C 32.269531 29.59375 32.554688 31.425781 32.984375 33.625 C 33.273438 35.050781 33.6875 36.882812 34.21875 39.125 C 34.75 41.375 35.457031 43.597656 36.34375 45.796875 C 37.238281 48.003906 38.378906 49.851562 39.765625 51.34375 C 41.160156 52.84375 42.851562 53.59375 44.84375 53.59375 C 46.625 53.59375 48.367188 52.878906 50.078125 51.453125 C 51.785156 50.035156 53.382812 48.273438 54.875 46.171875 C 56.375 44.078125 57.691406 41.976562 58.828125 39.875 C 59.960938 37.78125 60.851562 36.019531 61.5 34.59375 C 63.632812 30.175781 65.46875 25.476562 67 20.5 C 68.53125 15.519531 69.8125 10.445312 70.84375 5.28125 C 71.875 0.125 72.671875 -4.835938 73.234375 -9.609375 C 74.160156 -17.296875 74.675781 -25.375 74.78125 -33.84375 C 74.894531 -42.3125 74.378906 -50.390625 73.234375 -58.078125 C 72.523438 -62.492188 71.78125 -66.265625 71 -69.390625 C 70.21875 -72.523438 69.503906 -75.976562 68.859375 -79.75 C 68.722656 -80.75 68.546875 -81.675781 68.328125 -82.53125 C 68.117188 -83.382812 68.015625 -84.273438 68.015625 -85.203125 Z M 68.015625 -85.203125 "/></g></g></g><g fill="#efe1ff" fill-opacity="1"><g transform="translate(811.342029, 162.749989)"><g><path d="M 5.34375 -2.453125 C 6.40625 -2.734375 7.363281 -3.675781 8.21875 -5.28125 C 9.070312 -6.882812 9.675781 -8.71875 10.03125 -10.78125 C 10.382812 -12.84375 10.472656 -14.742188 10.296875 -16.484375 C 10.117188 -18.234375 9.566406 -19.429688 8.640625 -20.078125 C 8.429688 -19.285156 8.039062 -18.160156 7.46875 -16.703125 C 6.90625 -15.242188 6.351562 -13.640625 5.8125 -11.890625 C 5.28125 -10.148438 4.925781 -8.441406 4.75 -6.765625 C 4.570312 -5.097656 4.769531 -3.660156 5.34375 -2.453125 Z M 0 -6.078125 C 0 -7.003906 0.191406 -8.375 0.578125 -10.1875 C 0.972656 -12.007812 1.523438 -13.96875 2.234375 -16.0625 C 2.953125 -18.164062 3.753906 -20.160156 4.640625 -22.046875 C 5.535156 -23.929688 6.5 -25.476562 7.53125 -26.6875 C 8.5625 -27.894531 9.609375 -28.5 10.671875 -28.5 C 11.390625 -28.5 11.890625 -28.175781 12.171875 -27.53125 C 12.453125 -26.894531 12.523438 -26.363281 12.390625 -25.9375 C 12.242188 -25.582031 11.972656 -25.226562 11.578125 -24.875 C 11.191406 -24.519531 10.851562 -24.128906 10.5625 -23.703125 C 10.707031 -23.203125 11.0625 -22.648438 11.625 -22.046875 C 12.195312 -21.441406 12.769531 -20.640625 13.34375 -19.640625 C 13.914062 -18.648438 14.289062 -17.300781 14.46875 -15.59375 C 14.644531 -13.882812 14.445312 -11.640625 13.875 -8.859375 C 13.09375 -5.160156 11.847656 -2.382812 10.140625 -0.53125 C 8.429688 1.3125 6.757812 2.234375 5.125 2.234375 C 3.769531 2.234375 2.578125 1.539062 1.546875 0.15625 C 0.515625 -1.226562 0 -3.304688 0 -6.078125 Z M 0 -6.078125 "/></g></g></g><g fill="#efe1ff" fill-opacity="1"><g transform="translate(830.133456, 162.749989)"><g><path d="M 1.5 -0.421875 C 0.78125 -0.421875 0.347656 -0.863281 0.203125 -1.75 C 0.0664062 -2.644531 0.0351562 -3.585938 0.109375 -4.578125 C 0.179688 -5.578125 0.21875 -6.1875 0.21875 -6.40625 C 0.144531 -7.6875 0.125 -8.984375 0.15625 -10.296875 C 0.195312 -11.617188 0.179688 -12.957031 0.109375 -14.3125 C 0.109375 -14.800781 0.125 -15.738281 0.15625 -17.125 C 0.195312 -18.519531 0.304688 -20 0.484375 -21.5625 C 0.660156 -23.132812 0.925781 -24.488281 1.28125 -25.625 C 1.632812 -26.757812 2.097656 -27.328125 2.671875 -27.328125 C 4.085938 -27.328125 4.8125 -26.863281 4.84375 -25.9375 C 4.882812 -25.019531 4.835938 -23.8125 4.703125 -22.3125 C 4.628906 -21.8125 4.59375 -21.257812 4.59375 -20.65625 C 4.59375 -20.050781 4.59375 -19.460938 4.59375 -18.890625 C 4.59375 -18.179688 4.554688 -17.71875 4.484375 -17.5 C 4.410156 -17.289062 4.375 -16.832031 4.375 -16.125 C 5.15625 -16.6875 5.863281 -17.34375 6.5 -18.09375 C 7.144531 -18.84375 8.285156 -19.21875 9.921875 -19.21875 C 10.421875 -19.21875 11.078125 -19.234375 11.890625 -19.265625 C 12.710938 -19.304688 13.585938 -19.328125 14.515625 -19.328125 C 16.085938 -19.328125 17.546875 -19.238281 18.890625 -19.0625 C 20.242188 -18.882812 20.921875 -18.4375 20.921875 -17.71875 C 20.921875 -17.007812 20.546875 -16.546875 19.796875 -16.328125 C 19.054688 -16.117188 18.148438 -16.015625 17.078125 -16.015625 C 16.367188 -16.015625 15.640625 -16.03125 14.890625 -16.0625 C 14.140625 -16.101562 13.484375 -16.125 12.921875 -16.125 C 10.921875 -16.125 9.582031 -16.015625 8.90625 -15.796875 C 8.238281 -15.585938 7.476562 -14.769531 6.625 -13.34375 C 6.125 -12.414062 5.640625 -11.414062 5.171875 -10.34375 C 4.710938 -9.28125 4.375 -8.109375 4.15625 -6.828125 C 3.945312 -5.898438 3.859375 -4.9375 3.890625 -3.9375 C 3.929688 -2.945312 3.828125 -2.113281 3.578125 -1.4375 C 3.328125 -0.757812 2.632812 -0.421875 1.5 -0.421875 Z M 1.5 -0.421875 "/></g></g></g><g fill="#efe1ff" fill-opacity="1"><g transform="translate(847.536897, 162.749989)"><g><path d="M 0 -8.109375 C 0 -13.234375 0.125 -18.359375 0.375 -23.484375 C 0.625 -28.609375 0.960938 -33.554688 1.390625 -38.328125 C 1.460938 -38.828125 1.601562 -40 1.8125 -41.84375 C 2.03125 -43.695312 2.316406 -45.851562 2.671875 -48.3125 C 3.023438 -50.769531 3.453125 -53.171875 3.953125 -55.515625 C 4.453125 -57.867188 5.019531 -59.828125 5.65625 -61.390625 C 6.300781 -62.953125 6.976562 -63.734375 7.6875 -63.734375 C 9.113281 -63.734375 9.929688 -63.359375 10.140625 -62.609375 C 10.359375 -61.867188 10.285156 -60.859375 9.921875 -59.578125 C 9.566406 -58.296875 9.25 -56.835938 8.96875 -55.203125 C 8.039062 -49.929688 7.203125 -44.234375 6.453125 -38.109375 C 5.710938 -31.992188 5.144531 -25.910156 4.75 -19.859375 C 4.351562 -13.804688 4.15625 -8.253906 4.15625 -3.203125 C 4.300781 -3.347656 4.726562 -4.113281 5.4375 -5.5 C 6.15625 -6.882812 7.066406 -8.644531 8.171875 -10.78125 C 9.273438 -12.914062 10.46875 -15.175781 11.75 -17.5625 C 13.03125 -19.945312 14.3125 -22.1875 15.59375 -24.28125 C 16.875 -26.382812 18.03125 -28.09375 19.0625 -29.40625 C 20.09375 -30.726562 20.890625 -31.390625 21.453125 -31.390625 C 23.023438 -31.390625 23.722656 -31.015625 23.546875 -30.265625 C 23.367188 -29.515625 22.78125 -28.5 21.78125 -27.21875 C 20.78125 -25.9375 19.75 -24.410156 18.6875 -22.640625 C 18.394531 -22.210938 18.125 -21.800781 17.875 -21.40625 C 17.632812 -21.007812 17.367188 -20.597656 17.078125 -20.171875 C 16.441406 -19.109375 16.015625 -18.273438 15.796875 -17.671875 C 15.585938 -17.066406 15.5 -16.316406 15.53125 -15.421875 C 15.570312 -14.535156 15.695312 -13.0625 15.90625 -11 C 16.050781 -9.5 16.351562 -7.59375 16.8125 -5.28125 C 17.28125 -2.96875 17.832031 -0.65625 18.46875 1.65625 C 19.113281 3.96875 19.679688 5.835938 20.171875 7.265625 C 20.742188 8.609375 21.242188 9.597656 21.671875 10.234375 C 22.097656 10.878906 22.382812 11.5625 22.53125 12.28125 C 22.238281 12.5625 21.953125 12.863281 21.671875 13.1875 C 21.390625 13.507812 21.035156 13.671875 20.609375 13.671875 C 20.460938 13.671875 20.175781 13.597656 19.75 13.453125 C 18.894531 13.023438 18.164062 12.273438 17.5625 11.203125 C 16.957031 10.140625 16.457031 9.003906 16.0625 7.796875 C 15.675781 6.585938 15.335938 5.554688 15.046875 4.703125 C 14.265625 2.347656 13.625 -0.0507812 13.125 -2.5 C 12.632812 -4.957031 12.101562 -7.398438 11.53125 -9.828125 L 6.828125 0.421875 C 6.328125 1.992188 5.878906 3.613281 5.484375 5.28125 C 5.097656 6.957031 4.671875 8.363281 4.203125 9.5 C 3.742188 10.632812 3.160156 11.203125 2.453125 11.203125 C 1.523438 11.203125 0.9375 10.863281 0.6875 10.1875 C 0.4375 9.519531 0.328125 8.6875 0.359375 7.6875 C 0.398438 6.6875 0.382812 5.757812 0.3125 4.90625 C 0.25 4.125 0.179688 3.519531 0.109375 3.09375 C 0.0351562 2.664062 0 1.953125 0 0.953125 Z M 0 -8.109375 "/></g></g></g><g fill="#efe1ff" fill-opacity="1"><g transform="translate(871.77356, 162.749989)"><g><path d="M 1.28125 17.609375 C 1.28125 19.109375 1.742188 19.859375 2.671875 19.859375 C 3.171875 19.859375 3.703125 19.679688 4.265625 19.328125 C 4.835938 18.972656 5.300781 18.648438 5.65625 18.359375 C 7.082031 17.296875 8.347656 15.675781 9.453125 13.5 C 10.554688 11.332031 11.351562 9.359375 11.84375 7.578125 C 12.207031 6.367188 12.40625 5.140625 12.4375 3.890625 C 12.46875 2.648438 12.484375 1.28125 12.484375 -0.21875 C 11.628906 0.28125 10.648438 1.148438 9.546875 2.390625 C 8.453125 3.640625 7.582031 4.65625 6.9375 5.4375 C 5.65625 7.007812 4.390625 8.894531 3.140625 11.09375 C 1.898438 13.300781 1.28125 15.472656 1.28125 17.609375 Z M 0.3125 -17.296875 C 0.3125 -19.148438 0.8125 -20.804688 1.8125 -22.265625 C 2.8125 -23.722656 4.003906 -24.894531 5.390625 -25.78125 C 6.773438 -26.675781 7.96875 -27.125 8.96875 -27.125 C 9.75 -27.125 10.332031 -26.835938 10.71875 -26.265625 C 11.113281 -25.691406 11.132812 -24.726562 10.78125 -23.375 C 9.925781 -23.164062 9.320312 -23.039062 8.96875 -23 C 8.613281 -22.96875 8.328125 -22.863281 8.109375 -22.6875 C 7.898438 -22.507812 7.507812 -22.097656 6.9375 -21.453125 C 5.507812 -19.890625 4.847656 -18.628906 4.953125 -17.671875 C 5.066406 -16.710938 5.640625 -15.820312 6.671875 -15 C 7.703125 -14.175781 8.984375 -13.160156 10.515625 -11.953125 C 12.046875 -10.742188 13.488281 -9.109375 14.84375 -7.046875 C 16.40625 -8.109375 18.003906 -9.351562 19.640625 -10.78125 L 29.578125 -17.71875 C 30.503906 -18.363281 31.300781 -18.8125 31.96875 -19.0625 C 32.644531 -19.3125 33.234375 -19.4375 33.734375 -19.4375 C 34.585938 -19.4375 34.941406 -19.078125 34.796875 -18.359375 C 34.660156 -17.648438 33.988281 -16.941406 32.78125 -16.234375 L 25.515625 -11.203125 C 25.234375 -11.066406 24.628906 -10.660156 23.703125 -9.984375 C 22.773438 -9.304688 21.757812 -8.554688 20.65625 -7.734375 C 19.550781 -6.921875 18.609375 -6.15625 17.828125 -5.4375 C 17.046875 -4.726562 16.617188 -4.269531 16.546875 -4.0625 C 16.472656 -3.695312 16.578125 -3.015625 16.859375 -2.015625 C 17.148438 -1.023438 17.347656 0.265625 17.453125 1.859375 C 17.554688 3.460938 17.34375 5.421875 16.8125 7.734375 C 16.28125 10.046875 15.125 12.734375 13.34375 15.796875 C 11.78125 18.429688 10.070312 20.367188 8.21875 21.609375 C 6.363281 22.859375 4.617188 23.484375 2.984375 23.484375 C 1.492188 23.484375 0.269531 22.984375 -0.6875 21.984375 C -1.65625 20.992188 -2.140625 19.535156 -2.140625 17.609375 C -2.140625 15.191406 -1.550781 12.84375 -0.375 10.5625 C 0.800781 8.289062 2.207031 6.191406 3.84375 4.265625 C 5.476562 2.347656 6.988281 0.695312 8.375 -0.6875 C 9.769531 -2.082031 10.679688 -3.097656 11.109375 -3.734375 C 10.253906 -5.234375 9.21875 -6.53125 8 -7.625 C 6.789062 -8.726562 5.597656 -9.742188 4.421875 -10.671875 C 3.253906 -11.597656 2.273438 -12.578125 1.484375 -13.609375 C 0.703125 -14.640625 0.3125 -15.867188 0.3125 -17.296875 Z M 0.3125 -17.296875 "/></g></g></g><path stroke-linecap="butt" transform="matrix(0.75, 0, 0, 0.75, 916.539626, 29.436561)" fill="none" stroke-linejoin="miter" d="M 21.827375 201.376266 C 18.415917 201.376266 15.650291 200.292932 13.540916 198.126265 C 11.457583 195.959599 10.415916 193.277307 10.415916 190.084598 C 10.415916 186.808556 11.457583 184.141889 13.540916 182.084598 C 15.650291 180.032514 18.415917 179.001264 21.827375 179.001264 C 25.358625 179.001264 28.176334 180.032514 30.285709 182.084598 C 32.400293 184.141889 33.452376 186.808556 33.452376 190.084598 C 33.452376 193.277307 32.400293 195.959599 30.285709 198.126265 C 28.176334 200.292932 25.358625 201.376266 21.827375 201.376266 Z M 21.827375 201.376266 " stroke="#afaa1c" stroke-width="4.052866" stroke-opacity="1" stroke-miterlimit="4"/><g fill="#4bfe5a" fill-opacity="1"><g transform="translate(916.539626, 179.436551)"><g><path d="M 16.375 1.03125 C 13.820312 1.03125 11.753906 0.21875 10.171875 -1.40625 C 8.597656 -3.03125 7.8125 -5.035156 7.8125 -7.421875 C 7.8125 -9.898438 8.597656 -11.90625 10.171875 -13.4375 C 11.753906 -14.96875 13.820312 -15.734375 16.375 -15.734375 C 19.019531 -15.734375 21.128906 -14.96875 22.703125 -13.4375 C 24.285156 -11.90625 25.078125 -9.898438 25.078125 -7.421875 C 25.078125 -5.035156 24.285156 -3.03125 22.703125 -1.40625 C 21.128906 0.21875 19.019531 1.03125 16.375 1.03125 Z M 16.375 1.03125 "/></g></g></g></svg>